<svg width="760" height="340" viewBox="0 0 760 340" fill="none" xmlns="http://www.w3.org/2000/svg"><g clip-path="url(#clip0_12_179)"><path d="M744 0H16C7.16 0 0 7.16 0 16V324C0 332.84 7.16 340 16 340H744C752.84 340 760 332.84 760 324V16C760 7.16 752.84 0 744 0Z" fill="#0D0D14"/><path d="M33.14 38.62H35.48C36.5 38.62 37.27 38.98 37.77 39.68C38.28 40.38 38.53 41.43 38.53 42.81C38.53 44.2 38.28 45.24 37.77 45.94C37.27 46.65 36.5 47 35.48 47H33.14V38.62ZM35.43 46.12C36.1 46.12 36.61 45.89 36.94 45.43C37.29 44.96 37.46 44.31 37.46 43.46V42.16C37.46 41.32 37.29 40.66 36.94 40.2C36.61 39.73 36.1 39.5 35.43 39.5H34.15V46.12H35.43ZM40.2 47V46.2H42.29V39.43H40.2V38.62H45.39V39.43H43.3V46.2H45.39V47H40.2ZM48.48 47H47.47V38.62H50.52C51.29 38.62 51.89 38.84 52.29 39.26C52.7 39.68 52.91 40.28 52.91 41.04C52.91 41.72 52.73 42.26 52.38 42.67C52.03 43.08 51.51 43.31 50.84 43.38L52.98 47H51.85L49.81 43.42H48.48V47ZM50.49 42.57C50.92 42.57 51.25 42.47 51.48 42.26C51.72 42.04 51.84 41.74 51.84 41.35V40.72C51.84 40.33 51.72 40.03 51.48 39.82C51.25 39.61 50.92 39.5 50.49 39.5H48.48V42.57H50.49ZM54.67 47V38.62H59.83V39.5H55.67V42.32H59.68V43.2H55.67V46.12H59.83V47H54.67ZM64.66 47.14C63.63 47.14 62.87 46.77 62.37 46.03C61.87 45.28 61.62 44.21 61.62 42.81C61.62 41.41 61.87 40.34 62.37 39.6C62.87 38.85 63.63 38.48 64.66 38.48C65.04 38.48 65.37 38.53 65.65 38.64C65.93 38.74 66.17 38.88 66.37 39.06C66.57 39.23 66.74 39.43 66.88 39.66C67.01 39.87 67.13 40.09 67.24 40.32L66.37 40.71C66.3 40.53 66.22 40.36 66.12 40.2C66.03 40.03 65.91 39.88 65.77 39.76C65.65 39.64 65.49 39.54 65.31 39.46C65.13 39.39 64.91 39.36 64.66 39.36C63.99 39.36 63.5 39.61 63.17 40.11C62.85 40.62 62.69 41.29 62.69 42.13V43.5C62.69 44.34 62.85 45.01 63.17 45.51C63.5 46.02 63.99 46.27 64.66 46.27C64.91 46.27 65.13 46.23 65.31 46.16C65.49 46.09 65.65 45.99 65.77 45.87C65.91 45.74 66.03 45.6 66.12 45.44C66.22 45.27 66.3 45.1 66.37 44.91L67.24 45.31C67.13 45.54 67.01 45.76 66.88 45.98C66.74 46.2 66.57 46.39 66.37 46.57C66.17 46.74 65.93 46.88 65.65 46.99C65.37 47.09 65.04 47.14 64.66 47.14ZM72.08 39.5V47H71.07V39.5H68.28V38.62H74.88V39.5H72.08ZM76.18 47V46.2H78.27V39.43H76.18V38.62H81.36V39.43H79.28V46.2H81.36V47H76.18ZM85.97 47.14C85.46 47.14 85.02 47.05 84.65 46.86C84.28 46.66 83.98 46.37 83.74 46C83.5 45.64 83.32 45.18 83.21 44.65C83.1 44.11 83.04 43.5 83.04 42.81C83.04 42.13 83.1 41.52 83.21 40.99C83.32 40.44 83.5 39.99 83.74 39.62C83.98 39.25 84.28 38.97 84.65 38.78C85.02 38.58 85.46 38.48 85.97 38.48C86.48 38.48 86.92 38.58 87.29 38.78C87.66 38.97 87.96 39.25 88.2 39.62C88.44 39.99 88.62 40.44 88.73 40.99C88.84 41.52 88.9 42.13 88.9 42.81C88.9 43.5 88.84 44.11 88.73 44.65C88.62 45.18 88.44 45.64 88.2 46C87.96 46.37 87.66 46.66 87.29 46.86C86.92 47.05 86.48 47.14 85.97 47.14ZM85.97 46.27C86.3 46.27 86.59 46.2 86.82 46.08C87.05 45.94 87.24 45.75 87.4 45.51C87.55 45.27 87.66 44.98 87.72 44.65C87.79 44.3 87.83 43.92 87.83 43.5V42.13C87.83 41.71 87.79 41.33 87.72 40.99C87.66 40.64 87.55 40.35 87.4 40.11C87.24 39.87 87.05 39.69 86.82 39.56C86.59 39.42 86.3 39.36 85.97 39.36C85.63 39.36 85.35 39.42 85.12 39.56C84.88 39.69 84.69 39.87 84.54 40.11C84.39 40.35 84.28 40.64 84.2 40.99C84.14 41.33 84.11 41.71 84.11 42.13V43.5C84.11 43.92 84.14 44.3 84.2 44.65C84.28 44.98 84.39 45.27 84.54 45.51C84.69 45.75 84.88 45.94 85.12 46.08C85.35 46.2 85.63 46.27 85.97 46.27ZM91.52 39.94H91.43V47H90.52V38.62H91.95L94.81 45.68H94.89V38.62H95.8V47H94.37L91.52 39.94ZM103.95 43.8V42.91H111.15V43.8H103.95ZM119.27 46.18H121.08V41.62H119.27V40.81H122.04V42.37H122.1C122.23 41.88 122.47 41.5 122.82 41.23C123.18 40.95 123.64 40.81 124.19 40.81H125.05V41.77H123.89C123.34 41.77 122.89 41.93 122.54 42.25C122.21 42.57 122.04 42.99 122.04 43.51V46.18H124.44V47H119.27V46.18ZM129.25 47.14C128.8 47.14 128.4 47.07 128.03 46.92C127.68 46.76 127.38 46.55 127.12 46.27C126.88 45.98 126.68 45.64 126.55 45.25C126.41 44.85 126.34 44.4 126.34 43.92C126.34 43.42 126.41 42.97 126.55 42.57C126.69 42.17 126.89 41.83 127.14 41.55C127.38 41.26 127.68 41.04 128.02 40.89C128.38 40.74 128.76 40.66 129.19 40.66C129.6 40.66 129.98 40.74 130.31 40.89C130.66 41.04 130.95 41.26 131.19 41.53C131.43 41.79 131.62 42.11 131.74 42.48C131.87 42.84 131.94 43.25 131.94 43.69V44.14H127.35V44.43C127.35 44.7 127.39 44.96 127.48 45.19C127.57 45.42 127.69 45.62 127.86 45.79C128.02 45.96 128.22 46.09 128.46 46.18C128.69 46.27 128.96 46.32 129.25 46.32C129.66 46.32 130.02 46.22 130.33 46.03C130.63 45.84 130.86 45.57 131.02 45.24L131.73 45.72C131.55 46.13 131.24 46.48 130.81 46.75C130.38 47.01 129.86 47.14 129.25 47.14ZM129.19 41.46C128.92 41.46 128.68 41.5 128.46 41.6C128.23 41.7 128.03 41.83 127.87 42C127.71 42.16 127.58 42.36 127.48 42.6C127.39 42.82 127.35 43.07 127.35 43.34V43.42H130.9V43.29C130.9 43.02 130.86 42.77 130.77 42.55C130.69 42.32 130.57 42.13 130.42 41.97C130.28 41.8 130.1 41.68 129.88 41.59C129.68 41.5 129.44 41.46 129.19 41.46ZM136.55 47.14C136.1 47.14 135.7 47.07 135.35 46.92C135.01 46.76 134.71 46.54 134.47 46.26C134.23 45.98 134.05 45.64 133.92 45.24C133.8 44.84 133.74 44.39 133.74 43.9C133.74 43.42 133.81 42.97 133.93 42.57C134.06 42.17 134.25 41.83 134.49 41.55C134.73 41.26 135.02 41.04 135.36 40.89C135.71 40.74 136.1 40.66 136.54 40.66C137.14 40.66 137.63 40.8 138 41.06C138.38 41.32 138.65 41.67 138.83 42.09L138.06 42.5C137.95 42.18 137.76 41.93 137.5 41.76C137.24 41.58 136.92 41.49 136.54 41.49C136.26 41.49 136.01 41.54 135.78 41.64C135.57 41.72 135.38 41.85 135.23 42.02C135.08 42.19 134.96 42.39 134.88 42.62C134.81 42.85 134.77 43.1 134.77 43.38V44.43C134.77 44.7 134.81 44.96 134.88 45.19C134.96 45.42 135.08 45.62 135.23 45.79C135.38 45.96 135.57 46.09 135.79 46.18C136.02 46.27 136.27 46.32 136.56 46.32C136.98 46.32 137.32 46.22 137.59 46.03C137.87 45.84 138.08 45.57 138.24 45.24L138.93 45.7C138.74 46.12 138.45 46.46 138.06 46.74C137.68 47.01 137.17 47.14 136.55 47.14ZM143.64 47.14C143.19 47.14 142.79 47.07 142.43 46.92C142.07 46.76 141.77 46.55 141.51 46.27C141.27 45.98 141.07 45.64 140.94 45.25C140.8 44.85 140.73 44.4 140.73 43.92C140.73 43.42 140.8 42.97 140.94 42.57C141.08 42.17 141.28 41.83 141.53 41.55C141.77 41.26 142.07 41.04 142.41 40.89C142.77 40.74 143.15 40.66 143.58 40.66C143.99 40.66 144.37 40.74 144.71 40.89C145.05 41.04 145.34 41.26 145.58 41.53C145.82 41.79 146.01 42.11 146.13 42.48C146.26 42.84 146.33 43.25 146.33 43.69V44.14H141.74V44.43C141.74 44.7 141.79 44.96 141.87 45.19C141.96 45.42 142.09 45.62 142.25 45.79C142.41 45.96 142.61 46.09 142.85 46.18C143.09 46.27 143.35 46.32 143.64 46.32C144.05 46.32 144.41 46.22 144.72 46.03C145.02 45.84 145.25 45.57 145.41 45.24L146.12 45.72C145.94 46.13 145.63 46.48 145.2 46.75C144.77 47.01 144.25 47.14 143.64 47.14ZM143.58 41.46C143.31 41.46 143.07 41.5 142.85 41.6C142.62 41.7 142.43 41.83 142.26 42C142.1 42.16 141.97 42.36 141.87 42.6C141.79 42.82 141.74 43.07 141.74 43.34V43.42H145.29V43.29C145.29 43.02 145.25 42.77 145.16 42.55C145.08 42.32 144.97 42.13 144.81 41.97C144.67 41.8 144.49 41.68 144.27 41.59C144.07 41.5 143.83 41.46 143.58 41.46ZM151.11 39.44C150.83 39.44 150.63 39.38 150.52 39.27C150.41 39.15 150.35 39 150.35 38.83V38.64C150.35 38.46 150.41 38.32 150.52 38.2C150.63 38.08 150.83 38.02 151.11 38.02C151.39 38.02 151.59 38.08 151.7 38.2C151.81 38.32 151.87 38.46 151.87 38.64V38.83C151.87 39 151.81 39.15 151.7 39.27C151.59 39.38 151.39 39.44 151.11 39.44ZM148.4 46.18H150.63V41.62H148.4V40.81H151.59V46.18H153.68V47H148.4V46.18ZM157.31 47L155.09 40.81H156.06L156.95 43.4L157.91 46.2H157.96L158.92 43.4L159.8 40.81H160.75L158.53 47H157.31ZM165.22 47.14C164.78 47.14 164.37 47.07 164.01 46.92C163.66 46.76 163.36 46.55 163.1 46.27C162.85 45.98 162.66 45.64 162.52 45.25C162.39 44.85 162.32 44.4 162.32 43.92C162.32 43.42 162.39 42.97 162.52 42.57C162.67 42.17 162.86 41.83 163.11 41.55C163.36 41.26 163.66 41.04 164 40.89C164.35 40.74 164.74 40.66 165.16 40.66C165.58 40.66 165.96 40.74 166.29 40.89C166.64 41.04 166.93 41.26 167.17 41.53C167.41 41.79 167.59 42.11 167.72 42.48C167.85 42.84 167.91 43.25 167.91 43.69V44.14H163.33V44.43C163.33 44.7 163.37 44.96 163.46 45.19C163.55 45.42 163.67 45.62 163.83 45.79C164 45.96 164.2 46.09 164.43 46.18C164.67 46.27 164.94 46.32 165.22 46.32C165.64 46.32 166 46.22 166.3 46.03C166.61 45.84 166.84 45.57 167 45.24L167.71 45.72C167.52 46.13 167.22 46.48 166.78 46.75C166.36 47.01 165.84 47.14 165.22 47.14ZM165.16 41.46C164.9 41.46 164.66 41.5 164.43 41.6C164.21 41.7 164.01 41.83 163.84 42C163.68 42.16 163.56 42.36 163.46 42.6C163.37 42.82 163.33 43.07 163.33 43.34V43.42H166.88V43.29C166.88 43.02 166.84 42.77 166.75 42.55C166.67 42.32 166.55 42.13 166.4 41.97C166.26 41.8 166.08 41.68 165.86 41.59C165.65 41.5 165.42 41.46 165.16 41.46ZM173.81 45.99H173.76C173.36 46.76 172.73 47.14 171.85 47.14C171.09 47.14 170.5 46.86 170.07 46.29C169.64 45.72 169.43 44.93 169.43 43.9C169.43 42.88 169.64 42.08 170.07 41.52C170.5 40.95 171.09 40.66 171.85 40.66C172.73 40.66 173.36 41.05 173.76 41.82H173.81V38.12H174.77V47H173.81V45.99ZM172.23 46.29C172.44 46.29 172.65 46.26 172.84 46.21C173.03 46.15 173.2 46.07 173.34 45.97C173.49 45.86 173.6 45.72 173.68 45.57C173.77 45.41 173.81 45.23 173.81 45.02V42.79C173.81 42.58 173.77 42.4 173.68 42.25C173.6 42.09 173.49 41.96 173.34 41.85C173.2 41.74 173.03 41.66 172.84 41.6C172.65 41.54 172.44 41.52 172.23 41.52C171.67 41.52 171.23 41.69 170.92 42.03C170.62 42.37 170.46 42.82 170.46 43.38V44.43C170.46 44.99 170.62 45.44 170.92 45.79C171.23 46.12 171.67 46.29 172.23 46.29ZM184.18 48.66L188.36 37.88H189.22L185.05 48.66H184.18ZM204.22 47.71C204.22 48.33 203.96 48.79 203.44 49.09C202.92 49.39 202.14 49.54 201.1 49.54C200.1 49.54 199.38 49.41 198.94 49.15C198.51 48.88 198.3 48.5 198.3 48.01C198.3 47.67 198.38 47.41 198.56 47.23C198.74 47.04 198.98 46.91 199.3 46.82V46.68C199.13 46.59 198.99 46.48 198.9 46.34C198.8 46.2 198.75 46.03 198.75 45.82C198.75 45.5 198.86 45.26 199.06 45.1C199.28 44.94 199.55 44.82 199.87 44.74V44.7C199.48 44.53 199.18 44.28 198.97 43.95C198.76 43.62 198.66 43.24 198.66 42.8C198.66 42.49 198.71 42.2 198.82 41.94C198.94 41.67 199.1 41.45 199.3 41.26C199.52 41.07 199.78 40.92 200.07 40.82C200.37 40.72 200.7 40.66 201.06 40.66C201.52 40.66 201.93 40.75 202.28 40.92V40.81C202.28 40.57 202.34 40.37 202.45 40.21C202.56 40.05 202.75 39.97 203.02 39.97H204.16V40.81H202.77V41.23C203 41.42 203.17 41.65 203.29 41.91C203.41 42.18 203.47 42.47 203.47 42.8C203.47 43.11 203.41 43.4 203.29 43.66C203.18 43.93 203.02 44.16 202.81 44.35C202.6 44.53 202.34 44.68 202.04 44.78C201.74 44.88 201.42 44.94 201.06 44.94C200.95 44.94 200.85 44.93 200.76 44.92C200.66 44.92 200.56 44.9 200.47 44.89C200.37 44.9 200.27 44.93 200.17 44.97C200.06 45 199.97 45.05 199.88 45.12C199.79 45.17 199.72 45.24 199.66 45.32C199.61 45.4 199.58 45.49 199.58 45.6C199.58 45.78 199.67 45.9 199.86 45.97C200.04 46.02 200.28 46.05 200.58 46.05H201.94C202.74 46.05 203.32 46.2 203.68 46.51C204.04 46.8 204.22 47.2 204.22 47.71ZM203.32 47.76C203.32 47.51 203.22 47.31 203.02 47.16C202.82 47.01 202.48 46.94 201.98 46.94H199.83C199.42 47.11 199.21 47.39 199.21 47.78C199.21 48.05 199.32 48.28 199.53 48.48C199.75 48.68 200.11 48.78 200.61 48.78H201.55C202.11 48.78 202.54 48.69 202.86 48.51C203.17 48.34 203.32 48.09 203.32 47.76ZM201.06 44.19C201.54 44.19 201.89 44.08 202.11 43.86C202.34 43.63 202.46 43.34 202.46 42.97V42.62C202.46 42.25 202.34 41.96 202.11 41.74C201.89 41.52 201.54 41.41 201.06 41.41C200.58 41.41 200.22 41.52 200 41.74C199.78 41.96 199.66 42.25 199.66 42.62V42.97C199.66 43.34 199.78 43.63 200 43.86C200.22 44.08 200.58 44.19 201.06 44.19ZM208.67 39.44C208.39 39.44 208.2 39.38 208.08 39.27C207.97 39.15 207.92 39 207.92 38.83V38.64C207.92 38.46 207.97 38.32 208.08 38.2C208.2 38.08 208.39 38.02 208.67 38.02C208.95 38.02 209.15 38.08 209.26 38.2C209.37 38.32 209.43 38.46 209.43 38.64V38.83C209.43 39 209.37 39.15 209.26 39.27C209.15 39.38 208.95 39.44 208.67 39.44ZM205.96 46.18H208.19V41.62H205.96V40.81H209.15V46.18H211.24V47H205.96V46.18ZM214.87 47L212.65 40.81H213.62L214.51 43.4L215.47 46.2H215.52L216.48 43.4L217.37 40.81H218.31L216.09 47H214.87ZM222.79 47.14C222.34 47.14 221.93 47.07 221.57 46.92C221.22 46.76 220.92 46.55 220.66 46.27C220.41 45.98 220.22 45.64 220.09 45.25C219.95 44.85 219.88 44.4 219.88 43.92C219.88 43.42 219.95 42.97 220.09 42.57C220.23 42.17 220.43 41.83 220.67 41.55C220.92 41.26 221.22 41.04 221.56 40.89C221.91 40.74 222.3 40.66 222.73 40.66C223.14 40.66 223.52 40.74 223.85 40.89C224.2 41.04 224.49 41.26 224.73 41.53C224.97 41.79 225.15 42.11 225.28 42.48C225.41 42.84 225.47 43.25 225.47 43.69V44.14H220.89V44.43C220.89 44.7 220.93 44.96 221.02 45.19C221.11 45.42 221.23 45.62 221.39 45.79C221.56 45.96 221.76 46.09 221.99 46.18C222.23 46.27 222.5 46.32 222.79 46.32C223.2 46.32 223.56 46.22 223.87 46.03C224.17 45.84 224.4 45.57 224.56 45.24L225.27 45.72C225.09 46.13 224.78 46.48 224.35 46.75C223.92 47.01 223.4 47.14 222.79 47.14ZM222.73 41.46C222.46 41.46 222.22 41.5 221.99 41.6C221.77 41.7 221.57 41.83 221.41 42C221.25 42.16 221.12 42.36 221.02 42.6C220.93 42.82 220.89 43.07 220.89 43.34V43.42H224.44V43.29C224.44 43.02 224.4 42.77 224.31 42.55C224.23 42.32 224.11 42.13 223.96 41.97C223.82 41.8 223.64 41.68 223.42 41.59C223.21 41.5 222.98 41.46 222.73 41.46ZM227.45 47V40.81H228.41V41.82H228.46C228.52 41.66 228.6 41.52 228.7 41.38C228.79 41.24 228.91 41.12 229.04 41.01C229.19 40.91 229.36 40.82 229.55 40.76C229.74 40.7 229.97 40.66 230.22 40.66C230.87 40.66 231.39 40.87 231.78 41.29C232.17 41.7 232.37 42.28 232.37 43.03V47H231.41V43.2C231.41 42.63 231.28 42.21 231.04 41.94C230.79 41.66 230.43 41.52 229.94 41.52C229.75 41.52 229.56 41.54 229.38 41.59C229.2 41.64 229.03 41.71 228.89 41.8C228.75 41.9 228.63 42.02 228.54 42.18C228.45 42.33 228.41 42.5 228.41 42.7V47H227.45Z" fill="#9A9AA8"/><path d="M458 62H46C38.27 62 32 68.27 32 76V104C32 111.73 38.27 118 46 118H458C465.73 118 472 111.73 472 104V76C472 68.27 465.73 62 458 62Z" fill="#15131F"/><path d="M242 70H50C44.48 70 40 74.48 40 80V100C40 105.52 44.48 110 50 110H242C247.52 110 252 105.52 252 100V80C252 74.48 247.52 70 242 70Z" fill="#20212B"/><path d="M113.65 94V83.71H119.29C120.05 83.71 120.68 83.84 121.18 84.11C121.69 84.39 122.07 84.77 122.32 85.25C122.57 85.73 122.69 86.29 122.69 86.92C122.69 87.59 122.54 88.19 122.24 88.7C121.94 89.22 121.51 89.61 120.94 89.88L123.04 94H120.56L118.75 90.25H115.88V94H113.65ZM115.88 88.48H118.99C119.44 88.48 119.79 88.34 120.04 88.08C120.29 87.8 120.41 87.42 120.41 86.95C120.41 86.65 120.36 86.39 120.25 86.19C120.14 85.97 119.98 85.8 119.77 85.69C119.56 85.58 119.3 85.53 118.99 85.53H115.88V88.48ZM127.83 94.18C126.96 94.18 126.23 94.03 125.64 93.75C125.05 93.44 124.61 92.99 124.31 92.38C124.01 91.77 123.86 91 123.86 90.06C123.86 89.11 124.01 88.33 124.31 87.73C124.61 87.12 125.05 86.67 125.63 86.38C126.22 86.08 126.94 85.93 127.79 85.93C128.59 85.93 129.26 86.08 129.81 86.36C130.36 86.64 130.78 87.08 131.06 87.69C131.34 88.28 131.48 89.04 131.48 89.98V90.52H125.97C125.99 90.98 126.06 91.37 126.18 91.69C126.31 92.01 126.51 92.25 126.77 92.41C127.04 92.56 127.39 92.64 127.83 92.64C128.07 92.64 128.29 92.61 128.48 92.55C128.68 92.48 128.85 92.39 128.99 92.28C129.13 92.16 129.24 92 129.32 91.83C129.4 91.64 129.44 91.44 129.44 91.21H131.48C131.48 91.71 131.39 92.14 131.21 92.52C131.03 92.89 130.78 93.19 130.46 93.44C130.14 93.69 129.75 93.87 129.3 94C128.86 94.12 128.37 94.18 127.83 94.18ZM126 89.2H129.33C129.33 88.9 129.29 88.64 129.21 88.42C129.14 88.2 129.04 88.02 128.91 87.88C128.78 87.74 128.62 87.64 128.43 87.58C128.25 87.51 128.05 87.47 127.82 87.47C127.44 87.47 127.12 87.54 126.86 87.67C126.61 87.79 126.41 87.98 126.27 88.24C126.14 88.49 126.05 88.81 126 89.2ZM136.47 94.18C135.63 94.18 134.93 94.03 134.36 93.75C133.79 93.44 133.35 92.99 133.05 92.38C132.76 91.76 132.62 90.98 132.62 90.06C132.62 89.11 132.76 88.33 133.05 87.73C133.35 87.12 133.79 86.67 134.36 86.36C134.94 86.06 135.64 85.92 136.47 85.92C137.01 85.92 137.5 85.98 137.93 86.11C138.37 86.24 138.75 86.44 139.07 86.71C139.39 86.98 139.63 87.31 139.79 87.72C139.96 88.11 140.04 88.57 140.04 89.11H137.96C137.96 88.75 137.9 88.45 137.79 88.22C137.68 88 137.51 87.82 137.28 87.7C137.06 87.58 136.78 87.52 136.44 87.52C136.04 87.52 135.72 87.61 135.47 87.79C135.22 87.97 135.03 88.23 134.91 88.58C134.79 88.94 134.73 89.37 134.73 89.89V90.23C134.73 90.75 134.79 91.17 134.91 91.53C135.04 91.88 135.24 92.14 135.5 92.32C135.76 92.49 136.1 92.58 136.52 92.58C136.86 92.58 137.14 92.52 137.36 92.39C137.59 92.28 137.76 92.09 137.88 91.86C138 91.61 138.06 91.33 138.06 90.98H140.04C140.04 91.5 139.96 91.95 139.79 92.35C139.63 92.75 139.39 93.08 139.07 93.36C138.76 93.62 138.38 93.83 137.94 93.97C137.5 94.11 137.01 94.18 136.47 94.18ZM145.19 94.18C144.32 94.18 143.59 94.03 143 93.75C142.41 93.44 141.97 92.99 141.67 92.38C141.37 91.77 141.22 91 141.22 90.06C141.22 89.11 141.37 88.33 141.67 87.73C141.97 87.12 142.41 86.67 142.99 86.38C143.58 86.08 144.3 85.93 145.15 85.93C145.95 85.93 146.62 86.08 147.17 86.36C147.72 86.64 148.14 87.08 148.42 87.69C148.7 88.28 148.84 89.04 148.84 89.98V90.52H143.33C143.35 90.98 143.42 91.37 143.54 91.69C143.67 92.01 143.87 92.25 144.13 92.41C144.4 92.56 144.75 92.64 145.19 92.64C145.43 92.64 145.65 92.61 145.84 92.55C146.04 92.48 146.21 92.39 146.35 92.28C146.49 92.16 146.6 92 146.68 91.83C146.76 91.64 146.8 91.44 146.8 91.21H148.84C148.84 91.71 148.75 92.14 148.57 92.52C148.39 92.89 148.14 93.19 147.82 93.44C147.5 93.69 147.11 93.87 146.66 94C146.22 94.12 145.73 94.18 145.19 94.18ZM143.36 89.2H146.69C146.69 88.9 146.65 88.64 146.57 88.42C146.5 88.2 146.4 88.02 146.27 87.88C146.14 87.74 145.98 87.64 145.79 87.58C145.61 87.51 145.41 87.47 145.18 87.47C144.8 87.47 144.48 87.54 144.22 87.67C143.97 87.79 143.77 87.98 143.63 88.24C143.5 88.49 143.41 88.81 143.36 89.2ZM150.37 84.95V83.16H152.45V84.95H150.37ZM150.37 94V86.11H152.45V94H150.37ZM156.41 94L153.47 86.11H155.67L156.82 89.44C156.88 89.61 156.96 89.83 157.03 90.11C157.12 90.39 157.22 90.69 157.31 91C157.4 91.31 157.47 91.59 157.53 91.84H157.6C157.68 91.61 157.75 91.34 157.83 91.05C157.91 90.73 157.99 90.44 158.07 90.16C158.16 89.87 158.24 89.63 158.29 89.44L159.45 86.11H161.55L158.59 94H156.41ZM166.15 94.18C165.28 94.18 164.55 94.03 163.96 93.75C163.37 93.44 162.93 92.99 162.63 92.38C162.33 91.77 162.18 91 162.18 90.06C162.18 89.11 162.33 88.33 162.63 87.73C162.93 87.12 163.37 86.67 163.95 86.38C164.54 86.08 165.26 85.93 166.11 85.93C166.91 85.93 167.58 86.08 168.13 86.36C168.68 86.64 169.1 87.08 169.38 87.69C169.66 88.28 169.8 89.04 169.8 89.98V90.52H164.29C164.31 90.98 164.38 91.37 164.5 91.69C164.63 92.01 164.83 92.25 165.09 92.41C165.36 92.56 165.71 92.64 166.15 92.64C166.39 92.64 166.61 92.61 166.8 92.55C167 92.48 167.17 92.39 167.31 92.28C167.45 92.16 167.56 92 167.64 91.83C167.72 91.64 167.76 91.44 167.76 91.21H169.8C169.8 91.71 169.71 92.14 169.53 92.52C169.35 92.89 169.1 93.19 168.78 93.44C168.46 93.69 168.07 93.87 167.62 94C167.18 94.12 166.69 94.18 166.15 94.18ZM164.32 89.2H167.65C167.65 88.9 167.61 88.64 167.53 88.42C167.46 88.2 167.36 88.02 167.23 87.88C167.1 87.74 166.94 87.64 166.75 87.58C166.57 87.51 166.37 87.47 166.14 87.47C165.76 87.47 165.44 87.54 165.18 87.67C164.93 87.79 164.73 87.98 164.59 88.24C164.46 88.49 164.37 88.81 164.32 89.2ZM174.12 94.18C173.47 94.18 172.9 94.03 172.42 93.75C171.95 93.44 171.59 92.99 171.33 92.38C171.07 91.77 170.94 90.99 170.94 90.04C170.94 89.09 171.07 88.31 171.33 87.72C171.6 87.11 171.96 86.66 172.42 86.36C172.89 86.08 173.43 85.93 174.04 85.93C174.38 85.93 174.7 85.97 174.99 86.05C175.29 86.12 175.55 86.23 175.77 86.39C176 86.56 176.19 86.75 176.35 86.98H176.44V83.16H178.53V94H176.82L176.65 92.94H176.55C176.29 93.36 175.95 93.67 175.53 93.88C175.11 94.08 174.64 94.18 174.12 94.18ZM174.78 92.47C175.17 92.47 175.48 92.38 175.72 92.2C175.97 92.02 176.16 91.76 176.28 91.42C176.4 91.08 176.46 90.67 176.46 90.2V89.94C176.46 89.58 176.42 89.27 176.35 88.97C176.29 88.69 176.19 88.44 176.05 88.25C175.91 88.06 175.74 87.91 175.53 87.81C175.32 87.69 175.07 87.64 174.78 87.64C174.36 87.64 174.02 87.72 173.77 87.89C173.52 88.06 173.34 88.31 173.23 88.64C173.12 88.97 173.07 89.39 173.07 89.89V90.23C173.07 90.73 173.12 91.15 173.23 91.48C173.34 91.81 173.52 92.06 173.77 92.23C174.02 92.39 174.36 92.47 174.78 92.47Z" fill="#9A9AA8"/><path d="M454 70H266C260.48 70 256 74.48 256 80V100C256 105.52 260.48 110 266 110H454C459.52 110 464 105.52 464 100V80C464 74.48 459.52 70 454 70Z" fill="#EC6A7C"/><path d="M344.81 94.18C343.19 94.18 341.94 93.75 341.06 92.89C340.19 92.02 339.76 90.67 339.76 88.86C339.76 87.64 339.97 86.65 340.39 85.87C340.81 85.08 341.42 84.5 342.22 84.11C343.02 83.72 343.98 83.53 345.1 83.53C345.77 83.53 346.4 83.61 346.99 83.75C347.58 83.91 348.1 84.14 348.55 84.44C349.01 84.75 349.36 85.14 349.61 85.61C349.87 86.08 350 86.62 350 87.27H347.74C347.74 86.95 347.67 86.68 347.53 86.44C347.4 86.2 347.21 86 346.97 85.84C346.73 85.68 346.46 85.56 346.15 85.48C345.84 85.4 345.51 85.36 345.17 85.36C344.65 85.36 344.2 85.43 343.81 85.57C343.42 85.7 343.09 85.91 342.83 86.19C342.58 86.45 342.39 86.8 342.26 87.2C342.13 87.61 342.07 88.09 342.07 88.63V89.08C342.07 89.83 342.18 90.44 342.4 90.92C342.62 91.41 342.95 91.77 343.39 92C343.83 92.23 344.37 92.35 345.02 92.35C345.56 92.35 346.04 92.27 346.45 92.11C346.87 91.94 347.19 91.7 347.42 91.39C347.66 91.08 347.78 90.7 347.78 90.25V90.14H344.71V88.44H350V94H348.53L348.34 92.89C348.04 93.18 347.71 93.42 347.36 93.61C347.02 93.8 346.64 93.94 346.22 94.03C345.8 94.13 345.33 94.18 344.81 94.18ZM351.98 84.95V83.16H354.07V84.95H351.98ZM351.98 94V86.11H354.07V94H351.98ZM358.02 94L355.08 86.11H357.29L358.44 89.44C358.5 89.61 358.57 89.83 358.65 90.11C358.74 90.39 358.83 90.69 358.92 91C359.01 91.31 359.08 91.59 359.14 91.84H359.22C359.29 91.61 359.37 91.34 359.44 91.05C359.52 90.73 359.61 90.44 359.69 90.16C359.77 89.87 359.85 89.63 359.91 89.44L361.06 86.11H363.17L360.21 94H358.02ZM367.77 94.18C366.9 94.18 366.17 94.03 365.58 93.75C364.99 93.44 364.54 92.99 364.24 92.38C363.94 91.77 363.79 91 363.79 90.06C363.79 89.11 363.94 88.33 364.24 87.73C364.54 87.12 364.98 86.67 365.56 86.38C366.15 86.08 366.87 85.93 367.72 85.93C368.52 85.93 369.2 86.08 369.75 86.36C370.3 86.64 370.71 87.08 370.99 87.69C371.27 88.28 371.41 89.04 371.41 89.98V90.52H365.91C365.93 90.98 366 91.37 366.12 91.69C366.25 92.01 366.44 92.25 366.7 92.41C366.97 92.56 367.33 92.64 367.77 92.64C368.01 92.64 368.22 92.61 368.41 92.55C368.61 92.48 368.78 92.39 368.92 92.28C369.06 92.16 369.17 92 369.25 91.83C369.33 91.64 369.37 91.44 369.37 91.21H371.41C371.41 91.71 371.32 92.14 371.14 92.52C370.96 92.89 370.71 93.19 370.39 93.44C370.07 93.69 369.69 93.87 369.24 94C368.8 94.12 368.31 94.18 367.77 94.18ZM365.94 89.2H369.27C369.27 88.9 369.23 88.64 369.15 88.42C369.08 88.2 368.98 88.02 368.85 87.88C368.72 87.74 368.56 87.64 368.37 87.58C368.19 87.51 367.98 87.47 367.75 87.47C367.37 87.47 367.05 87.54 366.79 87.67C366.54 87.79 366.35 87.98 366.21 88.24C366.08 88.49 365.99 88.81 365.94 89.2ZM372.94 94V86.11H374.67L374.83 87.19H374.94C375.12 86.93 375.33 86.7 375.58 86.52C375.84 86.33 376.13 86.18 376.45 86.08C376.77 85.98 377.12 85.93 377.5 85.93C378.02 85.93 378.48 86.03 378.87 86.22C379.26 86.41 379.56 86.7 379.77 87.11C379.99 87.53 380.1 88.06 380.1 88.72V94H378.01V89.05C378.01 88.8 377.98 88.59 377.92 88.42C377.86 88.24 377.77 88.09 377.65 87.98C377.54 87.86 377.4 87.78 377.23 87.73C377.06 87.68 376.87 87.66 376.66 87.66C376.35 87.66 376.07 87.73 375.82 87.88C375.57 88.03 375.38 88.23 375.24 88.5C375.1 88.75 375.03 89.06 375.03 89.39V94H372.94Z" fill="#2A0910"/><path d="M495.37 96.13C494.77 96.13 494.26 96.03 493.83 95.83C493.4 95.63 493.04 95.36 492.74 95.02L493.33 94.5C493.6 94.79 493.9 95.01 494.22 95.16C494.55 95.32 494.93 95.39 495.39 95.39C495.83 95.39 496.19 95.32 496.47 95.16C496.75 95 496.89 94.75 496.89 94.42C496.89 94.27 496.87 94.15 496.81 94.05C496.76 93.95 496.68 93.87 496.59 93.81C496.49 93.75 496.38 93.71 496.27 93.68C496.15 93.64 496.03 93.61 495.89 93.59L495 93.46C494.81 93.43 494.59 93.39 494.35 93.34C494.13 93.29 493.92 93.21 493.73 93.1C493.54 92.98 493.38 92.82 493.24 92.63C493.12 92.44 493.06 92.19 493.06 91.89C493.06 91.6 493.11 91.35 493.22 91.15C493.34 90.94 493.5 90.76 493.7 90.62C493.91 90.47 494.15 90.37 494.43 90.3C494.71 90.23 495.01 90.19 495.34 90.19C495.86 90.19 496.3 90.27 496.68 90.43C497.06 90.6 497.38 90.82 497.65 91.11L497.08 91.64C497.02 91.56 496.93 91.48 496.83 91.4C496.73 91.31 496.61 91.24 496.47 91.17C496.33 91.1 496.16 91.04 495.97 91C495.78 90.95 495.56 90.93 495.31 90.93C494.86 90.93 494.52 91.01 494.28 91.16C494.04 91.31 493.93 91.54 493.93 91.83C493.93 91.98 493.95 92.1 494 92.2C494.06 92.3 494.14 92.38 494.23 92.44C494.33 92.49 494.44 92.54 494.55 92.58C494.68 92.61 494.8 92.63 494.93 92.66L495.82 92.79C496.02 92.82 496.24 92.86 496.47 92.91C496.69 92.96 496.9 93.04 497.09 93.16C497.28 93.27 497.44 93.42 497.57 93.61C497.7 93.8 497.76 94.05 497.76 94.36C497.76 94.93 497.54 95.36 497.1 95.67C496.67 95.98 496.09 96.13 495.37 96.13ZM502 96.13C501.58 96.13 501.21 96.06 500.88 95.92C500.56 95.78 500.28 95.59 500.05 95.33C499.82 95.06 499.64 94.75 499.52 94.39C499.39 94.03 499.33 93.62 499.33 93.17C499.33 92.72 499.39 92.31 499.52 91.94C499.65 91.57 499.83 91.26 500.06 91.01C500.29 90.74 500.56 90.54 500.87 90.4C501.19 90.26 501.55 90.19 501.94 90.19C502.32 90.19 502.67 90.26 502.97 90.4C503.29 90.54 503.56 90.73 503.78 90.98C504 91.23 504.17 91.52 504.28 91.85C504.4 92.19 504.46 92.56 504.46 92.96V93.38H500.26V93.65C500.26 93.9 500.3 94.13 500.38 94.34C500.46 94.55 500.57 94.73 500.72 94.89C500.87 95.04 501.06 95.16 501.27 95.25C501.49 95.33 501.73 95.37 502 95.37C502.38 95.37 502.71 95.28 502.99 95.11C503.26 94.93 503.48 94.69 503.62 94.38L504.27 94.82C504.1 95.2 503.82 95.52 503.43 95.77C503.04 96.01 502.56 96.13 502 96.13ZM501.94 90.92C501.7 90.92 501.47 90.96 501.27 91.05C501.06 91.14 500.88 91.26 500.73 91.41C500.58 91.57 500.47 91.75 500.38 91.96C500.3 92.17 500.26 92.4 500.26 92.64V92.72H503.51V92.6C503.51 92.35 503.47 92.12 503.39 91.92C503.32 91.71 503.21 91.54 503.07 91.39C502.94 91.24 502.78 91.12 502.58 91.04C502.39 90.96 502.17 90.92 501.94 90.92ZM506.07 95.25H508.05V88.61H506.07V87.86H508.93V95.25H510.91V96H506.07V95.25ZM515.19 96.13C514.77 96.13 514.4 96.06 514.08 95.92C513.75 95.78 513.47 95.59 513.24 95.33C513.01 95.06 512.84 94.75 512.71 94.39C512.59 94.03 512.52 93.62 512.52 93.17C512.52 92.72 512.59 92.31 512.71 91.94C512.84 91.57 513.02 91.26 513.25 91.01C513.48 90.74 513.75 90.54 514.06 90.4C514.39 90.26 514.74 90.19 515.13 90.19C515.51 90.19 515.86 90.26 516.16 90.4C516.48 90.54 516.75 90.73 516.97 90.98C517.19 91.23 517.36 91.52 517.47 91.85C517.59 92.19 517.65 92.56 517.65 92.96V93.38H513.45V93.65C513.45 93.9 513.49 94.13 513.57 94.34C513.65 94.55 513.76 94.73 513.91 94.89C514.06 95.04 514.25 95.16 514.46 95.25C514.68 95.33 514.92 95.37 515.19 95.37C515.57 95.37 515.9 95.28 516.18 95.11C516.46 94.93 516.67 94.69 516.81 94.38L517.46 94.82C517.29 95.2 517.01 95.52 516.62 95.77C516.23 96.01 515.75 96.13 515.19 96.13ZM515.13 90.92C514.89 90.92 514.66 90.96 514.46 91.05C514.25 91.14 514.08 91.26 513.92 91.41C513.77 91.57 513.66 91.75 513.57 91.96C513.49 92.17 513.45 92.4 513.45 92.64V92.72H516.7V92.6C516.7 92.35 516.66 92.12 516.58 91.92C516.51 91.71 516.4 91.54 516.26 91.39C516.13 91.24 515.97 91.12 515.77 91.04C515.58 90.96 515.37 90.92 515.13 90.92ZM521.88 96.13C521.47 96.13 521.1 96.06 520.78 95.92C520.47 95.78 520.2 95.57 519.98 95.32C519.76 95.06 519.59 94.75 519.47 94.38C519.36 94.02 519.31 93.61 519.31 93.16C519.31 92.71 519.37 92.31 519.48 91.94C519.6 91.57 519.77 91.26 519.99 91.01C520.21 90.74 520.48 90.54 520.79 90.4C521.11 90.26 521.47 90.19 521.87 90.19C522.42 90.19 522.87 90.31 523.21 90.56C523.56 90.8 523.81 91.11 523.97 91.5L523.27 91.88C523.16 91.58 522.99 91.35 522.75 91.19C522.51 91.03 522.22 90.95 521.87 90.95C521.61 90.95 521.38 91 521.18 91.08C520.98 91.16 520.81 91.28 520.67 91.44C520.53 91.59 520.42 91.77 520.35 91.98C520.29 92.2 520.25 92.43 520.25 92.68V93.65C520.25 93.9 520.29 94.13 520.35 94.34C520.42 94.55 520.53 94.73 520.67 94.89C520.81 95.04 520.98 95.16 521.19 95.25C521.39 95.33 521.63 95.37 521.89 95.37C522.27 95.37 522.59 95.28 522.84 95.11C523.09 94.93 523.28 94.69 523.43 94.38L524.06 94.81C523.89 95.19 523.63 95.51 523.27 95.76C522.91 96.01 522.45 96.13 521.88 96.13ZM528.55 96C528.12 96 527.8 95.88 527.6 95.64C527.4 95.39 527.3 95.08 527.3 94.7V91.07H525.41V90.32H526.82C527.01 90.32 527.14 90.29 527.21 90.21C527.29 90.13 527.33 90 527.33 89.81V88.32H528.18V90.32H530.76V91.07H528.18V95.25H530.76V96H528.55ZM534.97 96.13C534.56 96.13 534.19 96.06 533.86 95.92C533.54 95.78 533.26 95.59 533.03 95.33C532.8 95.06 532.62 94.75 532.5 94.39C532.37 94.03 532.31 93.62 532.31 93.17C532.31 92.72 532.37 92.31 532.5 91.94C532.63 91.57 532.81 91.26 533.04 91.01C533.26 90.74 533.54 90.54 533.85 90.4C534.17 90.26 534.53 90.19 534.92 90.19C535.3 90.19 535.64 90.26 535.95 90.4C536.27 90.54 536.53 90.73 536.75 90.98C536.98 91.23 537.14 91.52 537.26 91.85C537.38 92.19 537.44 92.56 537.44 92.96V93.38H533.24V93.65C533.24 93.9 533.28 94.13 533.36 94.34C533.44 94.55 533.55 94.73 533.7 94.89C533.85 95.04 534.03 95.16 534.25 95.25C534.47 95.33 534.71 95.37 534.97 95.37C535.36 95.37 535.68 95.28 535.96 95.11C536.24 94.93 536.46 94.69 536.6 94.38L537.25 94.82C537.08 95.2 536.8 95.52 536.4 95.77C536.01 96.01 535.54 96.13 534.97 96.13ZM534.92 90.92C534.68 90.92 534.45 90.96 534.25 91.05C534.04 91.14 533.86 91.26 533.71 91.41C533.56 91.57 533.44 91.75 533.36 91.96C533.28 92.17 533.24 92.4 533.24 92.64V92.72H536.49V92.6C536.49 92.35 536.45 92.12 536.37 91.92C536.3 91.71 536.19 91.54 536.05 91.39C535.92 91.24 535.75 91.12 535.56 91.04C535.37 90.96 535.15 90.92 534.92 90.92ZM542.85 95.08H542.8C542.43 95.78 541.85 96.13 541.05 96.13C540.36 96.13 539.81 95.87 539.41 95.35C539.02 94.83 538.83 94.1 538.83 93.16C538.83 92.22 539.02 91.49 539.41 90.97C539.81 90.45 540.36 90.19 541.05 90.19C541.85 90.19 542.43 90.54 542.8 91.25H542.85V87.86H543.73V96H542.85V95.08ZM541.39 95.35C541.59 95.35 541.78 95.33 541.95 95.27C542.13 95.22 542.28 95.15 542.42 95.05C542.55 94.95 542.65 94.83 542.72 94.69C542.8 94.54 542.85 94.38 542.85 94.19V92.14C542.85 91.95 542.8 91.78 542.72 91.64C542.65 91.5 542.55 91.38 542.42 91.28C542.28 91.18 542.13 91.1 541.95 91.05C541.78 91 541.59 90.97 541.39 90.97C540.88 90.97 540.48 91.13 540.19 91.45C539.91 91.75 539.78 92.16 539.78 92.68V93.65C539.78 94.16 539.91 94.57 540.19 94.89C540.48 95.2 540.88 95.35 541.39 95.35ZM548.07 96.1C547.76 96.1 547.55 96.04 547.43 95.91C547.31 95.79 547.25 95.63 547.25 95.44V95.24C547.25 95.05 547.31 94.89 547.43 94.77C547.55 94.64 547.76 94.58 548.07 94.58C548.37 94.58 548.58 94.64 548.69 94.77C548.82 94.89 548.88 95.05 548.88 95.24V95.44C548.88 95.63 548.82 95.79 548.69 95.91C548.58 96.04 548.37 96.1 548.07 96.1ZM548.07 91.74C547.76 91.74 547.55 91.68 547.43 91.56C547.31 91.43 547.25 91.27 547.25 91.08V90.89C547.25 90.69 547.31 90.54 547.43 90.41C547.55 90.29 547.76 90.22 548.07 90.22C548.37 90.22 548.58 90.29 548.69 90.41C548.82 90.54 548.88 90.69 548.88 90.89V91.08C548.88 91.27 548.82 91.43 548.69 91.56C548.58 91.68 548.37 91.74 548.07 91.74ZM562.84 94.98H562.79C562.72 95.12 562.64 95.27 562.55 95.41C562.47 95.55 562.35 95.67 562.21 95.78C562.08 95.88 561.92 95.97 561.73 96.03C561.54 96.1 561.31 96.13 561.05 96.13C560.21 96.13 559.59 95.79 559.18 95.12C558.77 94.45 558.57 93.48 558.57 92.22C558.57 90.9 558.8 89.89 559.24 89.21C559.69 88.53 560.38 88.19 561.31 88.19C561.67 88.19 561.98 88.24 562.25 88.33C562.51 88.43 562.74 88.56 562.92 88.72C563.11 88.88 563.27 89.06 563.39 89.27C563.52 89.47 563.62 89.67 563.7 89.87L562.91 90.24C562.84 90.07 562.76 89.91 562.68 89.76C562.6 89.61 562.49 89.48 562.37 89.37C562.25 89.25 562.11 89.16 561.94 89.09C561.77 89.03 561.57 88.99 561.35 88.99C560.73 88.99 560.27 89.22 559.98 89.69C559.7 90.15 559.55 90.76 559.55 91.53V92.72C559.55 93.11 559.58 93.47 559.64 93.79C559.7 94.1 559.79 94.38 559.93 94.61C560.07 94.85 560.24 95.03 560.45 95.16C560.67 95.29 560.94 95.35 561.26 95.35C561.76 95.35 562.14 95.2 562.42 94.9C562.7 94.6 562.84 94.21 562.84 93.73V92.94H561.22V92.2H563.7V96H562.84V94.98ZM568.21 89.07C567.95 89.07 567.77 89.02 567.67 88.92C567.56 88.81 567.51 88.67 567.51 88.51V88.33C567.51 88.17 567.56 88.04 567.67 87.94C567.77 87.83 567.95 87.77 568.21 87.77C568.46 87.77 568.64 87.83 568.74 87.94C568.85 88.04 568.9 88.17 568.9 88.33V88.51C568.9 88.67 568.85 88.81 568.74 88.92C568.64 89.02 568.46 89.07 568.21 89.07ZM565.72 95.25H567.76V91.07H565.72V90.32H568.64V95.25H570.56V96H565.72V95.25ZM573.89 96L571.85 90.32H572.74L573.56 92.7L574.44 95.26H574.48L575.36 92.7L576.17 90.32H577.04L575.01 96H573.89ZM581.14 96.13C580.73 96.13 580.36 96.06 580.03 95.92C579.71 95.78 579.43 95.59 579.2 95.33C578.97 95.06 578.79 94.75 578.67 94.39C578.54 94.03 578.48 93.62 578.48 93.17C578.48 92.72 578.54 92.31 578.67 91.94C578.8 91.57 578.98 91.26 579.21 91.01C579.43 90.74 579.71 90.54 580.02 90.4C580.34 90.26 580.7 90.19 581.09 90.19C581.47 90.19 581.81 90.26 582.12 90.4C582.44 90.54 582.71 90.73 582.92 90.98C583.14 91.23 583.31 91.52 583.43 91.85C583.55 92.19 583.61 92.56 583.61 92.96V93.38H579.4V93.65C579.4 93.9 579.45 94.13 579.53 94.34C579.61 94.55 579.72 94.73 579.87 94.89C580.02 95.04 580.2 95.16 580.42 95.25C580.64 95.33 580.88 95.37 581.14 95.37C581.52 95.37 581.85 95.28 582.13 95.11C582.41 94.93 582.62 94.69 582.77 94.38L583.42 94.82C583.25 95.2 582.97 95.52 582.57 95.77C582.18 96.01 581.71 96.13 581.14 96.13ZM581.09 90.92C580.85 90.92 580.62 90.96 580.42 91.05C580.21 91.14 580.03 91.26 579.88 91.41C579.73 91.57 579.61 91.75 579.53 91.96C579.45 92.17 579.4 92.4 579.4 92.64V92.72H582.66V92.6C582.66 92.35 582.62 92.12 582.54 91.92C582.47 91.71 582.36 91.54 582.22 91.39C582.09 91.24 581.92 91.12 581.73 91.04C581.53 90.96 581.32 90.92 581.09 90.92ZM585.42 96V90.32H586.3V91.25H586.34C586.4 91.11 586.47 90.98 586.56 90.85C586.65 90.72 586.76 90.61 586.88 90.51C587.01 90.42 587.17 90.34 587.34 90.28C587.52 90.22 587.72 90.19 587.96 90.19C588.55 90.19 589.03 90.38 589.39 90.76C589.75 91.14 589.93 91.67 589.93 92.36V96H589.05V92.51C589.05 91.99 588.93 91.61 588.71 91.36C588.48 91.1 588.15 90.97 587.71 90.97C587.53 90.97 587.36 91 587.19 91.04C587.02 91.08 586.87 91.15 586.74 91.24C586.61 91.33 586.5 91.44 586.42 91.58C586.34 91.72 586.3 91.88 586.3 92.06V96H585.42Z" fill="#6E6E7C"/><path d="M37.33 167.88H37.27C37.2 168.04 37.11 168.2 37.02 168.35C36.92 168.5 36.8 168.64 36.64 168.76C36.5 168.87 36.32 168.96 36.12 169.04C35.91 169.11 35.66 169.14 35.37 169.14C34.46 169.14 33.78 168.78 33.33 168.04C32.89 167.3 32.67 166.25 32.67 164.87C32.67 163.43 32.92 162.34 33.4 161.6C33.89 160.85 34.64 160.48 35.66 160.48C36.05 160.48 36.39 160.53 36.68 160.64C36.97 160.74 37.21 160.88 37.41 161.06C37.62 161.23 37.79 161.43 37.93 161.66C38.06 161.87 38.18 162.09 38.26 162.32L37.4 162.71C37.33 162.53 37.24 162.36 37.15 162.2C37.06 162.03 36.95 161.88 36.81 161.76C36.68 161.64 36.53 161.54 36.34 161.46C36.16 161.39 35.94 161.36 35.7 161.36C35.02 161.36 34.53 161.61 34.21 162.11C33.9 162.62 33.74 163.29 33.74 164.13V165.42C33.74 165.85 33.77 166.24 33.84 166.59C33.9 166.93 34 167.23 34.15 167.49C34.3 167.74 34.49 167.94 34.72 168.09C34.96 168.22 35.26 168.29 35.6 168.29C36.14 168.29 36.57 168.13 36.87 167.8C37.18 167.47 37.33 167.05 37.33 166.53V165.66H35.56V164.86H38.26V169H37.33V167.88ZM40.2 169V168.2H42.29V161.43H40.2V160.62H45.39V161.43H43.3V168.2H45.39V169H40.2ZM47.47 169V160.62H52.75V161.5H48.48V164.32H52.39V165.2H48.48V169H47.47ZM57.69 161.5V169H56.68V161.5H53.89V160.62H60.49V161.5H57.69ZM72.08 161.5V169H71.07V161.5H68.28V160.62H74.88V161.5H72.08ZM78.27 169V165.71L75.38 160.62H76.53L77.73 162.81L78.75 164.72H78.8L79.84 162.81L81.04 160.62H82.17L79.28 165.71V169H78.27ZM83.45 169V160.62H86.5C87.27 160.62 87.86 160.84 88.27 161.26C88.68 161.68 88.88 162.28 88.88 163.04C88.88 163.8 88.68 164.39 88.27 164.81C87.86 165.24 87.27 165.45 86.5 165.45H84.46V169H83.45ZM84.46 164.57H86.47C86.9 164.57 87.22 164.47 87.46 164.26C87.7 164.04 87.82 163.74 87.82 163.35V162.72C87.82 162.33 87.7 162.03 87.46 161.82C87.22 161.61 86.9 161.5 86.47 161.5H84.46V164.57ZM90.64 169V160.62H95.8V161.5H91.65V164.32H95.66V165.2H91.65V168.12H95.8V169H90.64ZM103.95 165.8V164.91H111.15V165.8H103.95ZM122.16 169.14C121.71 169.14 121.31 169.07 120.96 168.92C120.62 168.76 120.32 168.54 120.08 168.26C119.84 167.98 119.66 167.64 119.53 167.24C119.41 166.84 119.35 166.39 119.35 165.9C119.35 165.42 119.42 164.97 119.54 164.57C119.67 164.17 119.86 163.83 120.1 163.55C120.34 163.26 120.63 163.04 120.97 162.89C121.32 162.74 121.71 162.66 122.15 162.66C122.75 162.66 123.24 162.8 123.61 163.06C123.99 163.32 124.26 163.67 124.44 164.09L123.67 164.5C123.56 164.18 123.37 163.93 123.11 163.76C122.85 163.58 122.53 163.49 122.15 163.49C121.87 163.49 121.62 163.54 121.39 163.64C121.18 163.72 120.99 163.85 120.84 164.02C120.69 164.19 120.57 164.39 120.49 164.62C120.42 164.85 120.38 165.1 120.38 165.38V166.43C120.38 166.7 120.42 166.96 120.49 167.19C120.57 167.42 120.69 167.62 120.84 167.79C120.99 167.96 121.18 168.09 121.4 168.18C121.63 168.27 121.88 168.32 122.17 168.32C122.59 168.32 122.93 168.22 123.2 168.03C123.48 167.84 123.69 167.57 123.85 167.24L124.54 167.7C124.35 168.12 124.06 168.46 123.67 168.74C123.29 169.01 122.78 169.14 122.16 169.14ZM131.48 169C131.1 169 130.84 168.9 130.68 168.71C130.51 168.52 130.41 168.28 130.38 167.99H130.31C130.18 168.35 129.96 168.64 129.66 168.84C129.36 169.04 128.96 169.14 128.46 169.14C127.81 169.14 127.29 168.98 126.91 168.64C126.52 168.3 126.33 167.84 126.33 167.26C126.33 166.68 126.54 166.24 126.95 165.93C127.38 165.62 128.06 165.46 129 165.46H130.31V164.85C130.31 164.39 130.19 164.05 129.93 163.83C129.68 163.6 129.31 163.48 128.84 163.48C128.42 163.48 128.08 163.56 127.82 163.73C127.56 163.89 127.34 164.11 127.18 164.39L126.53 163.91C126.61 163.75 126.72 163.6 126.86 163.44C127 163.29 127.16 163.16 127.36 163.05C127.56 162.93 127.79 162.84 128.05 162.77C128.3 162.7 128.59 162.66 128.9 162.66C129.63 162.66 130.2 162.85 130.63 163.22C131.06 163.58 131.28 164.1 131.28 164.75V168.16H132.14V169H131.48ZM128.62 168.34C128.87 168.34 129.09 168.31 129.29 168.26C129.5 168.19 129.68 168.11 129.84 168.02C129.99 167.91 130.1 167.79 130.18 167.66C130.27 167.51 130.31 167.36 130.31 167.2V166.18H129C128.42 166.18 128 166.26 127.73 166.42C127.47 166.58 127.34 166.81 127.34 167.12V167.37C127.34 167.69 127.45 167.93 127.67 168.1C127.91 168.26 128.22 168.34 128.62 168.34ZM136.41 169.14C135.76 169.14 135.2 169.04 134.73 168.82C134.26 168.6 133.87 168.3 133.54 167.93L134.19 167.37C134.48 167.68 134.81 167.92 135.16 168.09C135.51 168.26 135.93 168.34 136.43 168.34C136.91 168.34 137.3 168.26 137.61 168.09C137.92 167.91 138.07 167.64 138.07 167.27C138.07 167.11 138.04 166.98 137.98 166.88C137.92 166.76 137.84 166.68 137.74 166.61C137.63 166.55 137.52 166.5 137.39 166.47C137.26 166.43 137.13 166.4 136.98 166.37L136.01 166.23C135.79 166.2 135.56 166.15 135.3 166.1C135.05 166.04 134.83 165.95 134.62 165.83C134.41 165.7 134.23 165.54 134.09 165.33C133.95 165.12 133.89 164.85 133.89 164.51C133.89 164.2 133.95 163.93 134.07 163.71C134.19 163.48 134.37 163.28 134.59 163.13C134.82 162.97 135.08 162.86 135.39 162.78C135.69 162.7 136.02 162.66 136.38 162.66C136.94 162.66 137.43 162.75 137.83 162.93C138.25 163.1 138.61 163.35 138.9 163.66L138.28 164.25C138.21 164.16 138.11 164.07 138 163.98C137.9 163.89 137.77 163.8 137.61 163.73C137.45 163.65 137.27 163.59 137.07 163.54C136.86 163.49 136.62 163.47 136.35 163.47C135.86 163.47 135.48 163.55 135.22 163.72C134.96 163.89 134.83 164.13 134.83 164.45C134.83 164.61 134.86 164.75 134.92 164.86C134.98 164.96 135.07 165.05 135.17 165.11C135.27 165.18 135.39 165.23 135.52 165.27C135.65 165.3 135.79 165.33 135.93 165.35L136.9 165.5C137.12 165.53 137.36 165.57 137.61 165.63C137.85 165.68 138.08 165.78 138.29 165.9C138.5 166.02 138.67 166.19 138.81 166.4C138.95 166.6 139.02 166.88 139.02 167.21C139.02 167.83 138.78 168.3 138.3 168.64C137.83 168.98 137.2 169.14 136.41 169.14ZM141.11 160.12H142.07V163.82H142.11C142.18 163.66 142.26 163.52 142.35 163.38C142.45 163.24 142.57 163.12 142.7 163.01C142.85 162.91 143.01 162.82 143.21 162.76C143.4 162.7 143.62 162.66 143.88 162.66C144.53 162.66 145.05 162.87 145.44 163.29C145.83 163.7 146.03 164.28 146.03 165.03V169H145.07V165.2C145.07 164.63 144.94 164.21 144.69 163.94C144.45 163.66 144.08 163.52 143.6 163.52C143.41 163.52 143.22 163.54 143.04 163.59C142.85 163.64 142.69 163.71 142.55 163.8C142.4 163.9 142.29 164.02 142.2 164.18C142.11 164.33 142.07 164.5 142.07 164.7V169H141.11V160.12ZM155.4 170.66L159.58 159.88H160.44L156.26 170.66H155.4ZM175.44 169.71C175.44 170.33 175.18 170.79 174.66 171.09C174.14 171.39 173.36 171.54 172.32 171.54C171.32 171.54 170.6 171.41 170.16 171.15C169.73 170.88 169.51 170.5 169.51 170.01C169.51 169.67 169.6 169.41 169.78 169.23C169.96 169.04 170.2 168.91 170.52 168.82V168.68C170.35 168.59 170.21 168.48 170.12 168.34C170.02 168.2 169.97 168.03 169.97 167.82C169.97 167.5 170.07 167.26 170.28 167.1C170.5 166.94 170.77 166.82 171.09 166.74V166.7C170.7 166.53 170.4 166.28 170.19 165.95C169.98 165.62 169.88 165.24 169.88 164.8C169.88 164.49 169.93 164.2 170.04 163.94C170.16 163.67 170.31 163.45 170.52 163.26C170.74 163.07 171 162.92 171.29 162.82C171.59 162.72 171.91 162.66 172.28 162.66C172.74 162.66 173.15 162.75 173.5 162.92V162.81C173.5 162.57 173.56 162.37 173.67 162.21C173.78 162.05 173.97 161.97 174.24 161.97H175.38V162.81H173.99V163.23C174.22 163.42 174.39 163.65 174.51 163.91C174.63 164.18 174.69 164.47 174.69 164.8C174.69 165.11 174.63 165.4 174.51 165.66C174.4 165.93 174.24 166.16 174.03 166.35C173.82 166.53 173.56 166.68 173.26 166.78C172.96 166.88 172.63 166.94 172.28 166.94C172.17 166.94 172.07 166.93 171.97 166.92C171.88 166.92 171.78 166.9 171.69 166.89C171.59 166.9 171.49 166.93 171.39 166.97C171.28 167 171.19 167.05 171.1 167.12C171.01 167.17 170.94 167.24 170.88 167.32C170.83 167.4 170.8 167.49 170.8 167.6C170.8 167.78 170.89 167.9 171.07 167.97C171.26 168.02 171.5 168.05 171.79 168.05H173.16C173.96 168.05 174.54 168.2 174.9 168.51C175.26 168.8 175.44 169.2 175.44 169.71ZM174.54 169.76C174.54 169.51 174.44 169.31 174.24 169.16C174.04 169.01 173.69 168.94 173.2 168.94H171.05C170.63 169.11 170.43 169.39 170.43 169.78C170.43 170.05 170.53 170.28 170.75 170.48C170.97 170.68 171.33 170.78 171.83 170.78H172.77C173.33 170.78 173.76 170.69 174.07 170.51C174.39 170.34 174.54 170.09 174.54 169.76ZM172.28 166.19C172.75 166.19 173.11 166.08 173.33 165.86C173.56 165.63 173.68 165.34 173.68 164.97V164.62C173.68 164.25 173.56 163.96 173.33 163.74C173.11 163.52 172.75 163.41 172.28 163.41C171.79 163.41 171.44 163.52 171.22 163.74C171 163.96 170.88 164.25 170.88 164.62V164.97C170.88 165.34 171 165.63 171.22 165.86C171.44 166.08 171.79 166.19 172.28 166.19ZM179.89 161.44C179.61 161.44 179.41 161.38 179.3 161.27C179.19 161.15 179.13 161 179.13 160.83V160.64C179.13 160.46 179.19 160.32 179.3 160.2C179.41 160.08 179.61 160.02 179.89 160.02C180.17 160.02 180.37 160.08 180.48 160.2C180.59 160.32 180.65 160.46 180.65 160.64V160.83C180.65 161 180.59 161.15 180.48 161.27C180.37 161.38 180.17 161.44 179.89 161.44ZM177.18 168.18H179.41V163.62H177.18V162.81H180.37V168.18H182.46V169H177.18V168.18ZM184.1 168.18H186.19V163.62H183.98V162.81H186.19V161.54C186.19 161.12 186.29 160.78 186.51 160.52C186.73 160.25 187.08 160.12 187.55 160.12H189.63V160.94H187.15V162.81H189.63V163.62H187.15V168.18H189.35V169H184.1V168.18ZM194.2 169C193.72 169 193.38 168.87 193.15 168.6C192.94 168.34 192.83 168 192.83 167.58V163.62H190.76V162.81H192.3C192.51 162.81 192.65 162.77 192.73 162.69C192.82 162.6 192.87 162.45 192.87 162.24V160.62H193.79V162.81H196.61V163.62H193.79V168.18H196.61V169H194.2ZM205.77 170.66L209.94 159.88H210.81L206.63 170.66H205.77ZM220.22 160.12H221.18V163.82H221.23C221.63 163.05 222.26 162.66 223.13 162.66C223.89 162.66 224.49 162.95 224.91 163.52C225.34 164.08 225.56 164.88 225.56 165.9C225.56 166.93 225.34 167.72 224.91 168.29C224.49 168.86 223.89 169.14 223.13 169.14C222.26 169.14 221.63 168.76 221.23 167.99H221.18V169H220.22V160.12ZM222.76 168.29C223.32 168.29 223.75 168.12 224.06 167.79C224.37 167.44 224.53 166.99 224.53 166.43V165.38C224.53 164.82 224.37 164.37 224.06 164.03C223.75 163.69 223.32 163.52 222.76 163.52C222.55 163.52 222.34 163.54 222.15 163.6C221.96 163.66 221.79 163.74 221.65 163.85C221.5 163.96 221.39 164.09 221.3 164.25C221.22 164.4 221.18 164.58 221.18 164.79V167.02C221.18 167.23 221.22 167.41 221.3 167.57C221.39 167.72 221.5 167.86 221.65 167.97C221.79 168.07 221.96 168.15 222.15 168.21C222.34 168.26 222.55 168.29 222.76 168.29ZM229.87 169.14C229.44 169.14 229.05 169.07 228.7 168.92C228.35 168.76 228.06 168.55 227.81 168.27C227.57 167.98 227.38 167.64 227.26 167.25C227.13 166.85 227.06 166.4 227.06 165.9C227.06 165.42 227.13 164.97 227.26 164.57C227.38 164.17 227.57 163.83 227.81 163.55C228.06 163.26 228.35 163.04 228.7 162.89C229.05 162.74 229.44 162.66 229.87 162.66C230.31 162.66 230.69 162.74 231.04 162.89C231.39 163.04 231.69 163.26 231.93 163.55C232.17 163.83 232.36 164.17 232.49 164.57C232.62 164.97 232.68 165.42 232.68 165.9C232.68 166.4 232.62 166.85 232.49 167.25C232.36 167.64 232.17 167.98 231.93 168.27C231.69 168.55 231.39 168.76 231.04 168.92C230.69 169.07 230.31 169.14 229.87 169.14ZM229.87 168.32C230.41 168.32 230.84 168.16 231.17 167.84C231.5 167.52 231.66 167.02 231.66 166.35V165.46C231.66 164.79 231.5 164.29 231.17 163.97C230.84 163.65 230.41 163.49 229.87 163.49C229.34 163.49 228.91 163.65 228.58 163.97C228.25 164.29 228.09 164.79 228.09 165.46V166.35C228.09 167.02 228.25 167.52 228.58 167.84C228.91 168.16 229.34 168.32 229.87 168.32ZM237.37 169C236.9 169 236.55 168.87 236.32 168.6C236.11 168.34 236 168 236 167.58V163.62H233.94V162.81H235.47C235.68 162.81 235.82 162.77 235.91 162.69C235.99 162.6 236.04 162.45 236.04 162.24V160.62H236.96V162.81H239.78V163.62H236.96V168.18H239.78V169H237.37ZM241.84 160.12H242.8V163.82H242.85C242.91 163.66 242.99 163.52 243.09 163.38C243.18 163.24 243.3 163.12 243.44 163.01C243.58 162.91 243.75 162.82 243.94 162.76C244.13 162.7 244.36 162.66 244.61 162.66C245.26 162.66 245.78 162.87 246.17 163.29C246.56 163.7 246.76 164.28 246.76 165.03V169H245.8V165.2C245.8 164.63 245.68 164.21 245.43 163.94C245.18 163.66 244.82 163.52 244.34 163.52C244.14 163.52 243.96 163.54 243.77 163.59C243.59 163.64 243.42 163.71 243.28 163.8C243.14 163.9 243.02 164.02 242.93 164.18C242.84 164.33 242.8 164.5 242.8 164.7V169H241.84V160.12Z" fill="#9A9AA8"/><path d="M170 184H44C37.37 184 32 189.37 32 196V220C32 226.63 37.37 232 44 232H170C176.63 232 182 226.63 182 220V196C182 189.37 176.63 184 170 184Z" stroke="#7158D7"/><path d="M94.21 211.18C93.14 211.18 92.23 211 91.47 210.62C90.71 210.25 90.13 209.66 89.73 208.87C89.34 208.08 89.14 207.07 89.14 205.85C89.14 204.06 89.58 202.72 90.46 201.85C91.35 200.97 92.6 200.53 94.21 200.53C95.09 200.53 95.88 200.68 96.58 200.98C97.28 201.28 97.83 201.73 98.23 202.33C98.64 202.93 98.85 203.69 98.85 204.59H96.6C96.6 204.12 96.5 203.71 96.3 203.38C96.11 203.05 95.83 202.8 95.47 202.63C95.12 202.45 94.71 202.36 94.24 202.36C93.6 202.36 93.07 202.49 92.65 202.74C92.24 202.99 91.94 203.35 91.74 203.84C91.55 204.32 91.45 204.91 91.45 205.62V206.08C91.45 206.8 91.55 207.41 91.75 207.9C91.95 208.38 92.25 208.74 92.65 208.99C93.06 209.23 93.59 209.35 94.23 209.35C94.73 209.35 95.16 209.26 95.53 209.09C95.9 208.93 96.19 208.68 96.39 208.34C96.59 208.01 96.69 207.61 96.69 207.13H98.85C98.85 208.04 98.65 208.79 98.25 209.4C97.86 210 97.31 210.44 96.61 210.75C95.91 211.03 95.11 211.18 94.21 211.18ZM102.52 211.18C102.26 211.18 101.98 211.15 101.68 211.09C101.39 211.03 101.11 210.93 100.85 210.78C100.59 210.62 100.38 210.39 100.21 210.1C100.05 209.8 99.97 209.42 99.97 208.96C99.97 208.41 100.09 207.96 100.33 207.59C100.57 207.24 100.91 206.96 101.35 206.75C101.8 206.54 102.33 206.4 102.95 206.32C103.57 206.24 104.26 206.2 105.01 206.2V205.62C105.01 205.38 104.97 205.19 104.89 205.01C104.82 204.84 104.69 204.71 104.5 204.61C104.32 204.51 104.06 204.46 103.73 204.46C103.4 204.46 103.13 204.5 102.92 204.58C102.72 204.66 102.58 204.76 102.49 204.9C102.41 205.01 102.37 205.15 102.37 205.3V205.48H100.34C100.33 205.43 100.33 205.38 100.33 205.34C100.33 205.29 100.33 205.24 100.33 205.16C100.33 204.71 100.47 204.31 100.75 203.98C101.03 203.64 101.42 203.38 101.93 203.2C102.44 203.02 103.04 202.93 103.72 202.93C104.45 202.93 105.06 203.03 105.55 203.22C106.05 203.41 106.43 203.69 106.69 204.06C106.96 204.43 107.09 204.89 107.09 205.45V209.03C107.09 209.22 107.14 209.35 107.24 209.44C107.35 209.52 107.47 209.56 107.6 209.56H108.1V210.93C108 210.97 107.84 211.03 107.63 211.07C107.42 211.13 107.17 211.16 106.87 211.16C106.58 211.16 106.32 211.12 106.09 211.03C105.87 210.95 105.68 210.84 105.53 210.69C105.38 210.53 105.28 210.34 105.22 210.12H105.11C104.94 210.32 104.73 210.51 104.48 210.67C104.24 210.83 103.96 210.96 103.63 211.04C103.31 211.13 102.94 211.18 102.52 211.18ZM103.22 209.6C103.5 209.6 103.75 209.56 103.97 209.49C104.19 209.4 104.38 209.28 104.53 209.14C104.68 208.99 104.79 208.81 104.87 208.6C104.96 208.39 105.01 208.16 105.01 207.93V207.49C104.45 207.49 103.95 207.53 103.51 207.61C103.07 207.68 102.72 207.81 102.46 207.99C102.21 208.16 102.08 208.41 102.08 208.74C102.08 208.91 102.13 209.07 102.22 209.2C102.31 209.33 102.44 209.43 102.61 209.5C102.78 209.57 102.98 209.6 103.22 209.6ZM112.33 211.18C111.78 211.18 111.28 211.12 110.84 211C110.4 210.88 110.03 210.72 109.72 210.5C109.41 210.28 109.17 210.03 109 209.72C108.84 209.43 108.76 209.09 108.76 208.71C108.76 208.66 108.76 208.62 108.76 208.59C108.76 208.54 108.76 208.51 108.77 208.5H110.78C110.78 208.51 110.78 208.53 110.78 208.56C110.78 208.57 110.78 208.59 110.78 208.62C110.79 208.87 110.87 209.07 111.02 209.23C111.17 209.38 111.37 209.49 111.61 209.56C111.86 209.63 112.12 209.66 112.39 209.66C112.63 209.66 112.86 209.65 113.08 209.6C113.31 209.56 113.5 209.47 113.65 209.35C113.81 209.23 113.89 209.07 113.89 208.88C113.89 208.65 113.79 208.46 113.59 208.33C113.4 208.2 113.14 208.09 112.82 208.01C112.51 207.94 112.17 207.84 111.8 207.75C111.46 207.66 111.12 207.57 110.78 207.47C110.44 207.37 110.13 207.22 109.85 207.06C109.58 206.88 109.36 206.66 109.19 206.4C109.02 206.12 108.94 205.76 108.94 205.34C108.94 204.94 109.03 204.58 109.21 204.28C109.39 203.97 109.63 203.72 109.94 203.51C110.26 203.31 110.63 203.17 111.05 203.08C111.48 202.98 111.94 202.93 112.43 202.93C112.89 202.93 113.32 202.98 113.72 203.08C114.12 203.17 114.47 203.31 114.77 203.5C115.07 203.68 115.31 203.91 115.48 204.19C115.65 204.46 115.73 204.76 115.73 205.1C115.73 205.18 115.73 205.24 115.73 205.3C115.73 205.36 115.73 205.4 115.72 205.42H113.72V205.3C113.72 205.12 113.67 204.97 113.56 204.85C113.45 204.72 113.29 204.62 113.08 204.55C112.88 204.48 112.63 204.44 112.34 204.44C112.14 204.44 111.96 204.46 111.79 204.49C111.63 204.52 111.49 204.56 111.37 204.62C111.25 204.69 111.15 204.76 111.08 204.85C111.02 204.93 110.99 205.03 110.99 205.15C110.99 205.32 111.06 205.46 111.2 205.57C111.35 205.67 111.55 205.75 111.79 205.82C112.03 205.9 112.29 205.97 112.58 206.05C112.94 206.15 113.32 206.25 113.71 206.35C114.11 206.44 114.48 206.56 114.82 206.72C115.16 206.88 115.43 207.12 115.64 207.41C115.85 207.71 115.96 208.1 115.96 208.6C115.96 209.08 115.86 209.49 115.67 209.81C115.49 210.15 115.24 210.41 114.91 210.61C114.58 210.81 114.19 210.96 113.75 211.04C113.31 211.13 112.84 211.18 112.33 211.18ZM117.47 211V200.16H119.55V203.98H119.66C119.83 203.77 120.03 203.59 120.26 203.44C120.5 203.28 120.76 203.16 121.05 203.06C121.35 202.97 121.68 202.93 122.03 202.93C122.55 202.93 123 203.03 123.39 203.22C123.78 203.41 124.08 203.71 124.29 204.12C124.51 204.53 124.62 205.06 124.62 205.72V211H122.54V206.05C122.54 205.8 122.51 205.59 122.45 205.42C122.39 205.24 122.3 205.09 122.18 204.99C122.07 204.87 121.93 204.78 121.76 204.73C121.59 204.68 121.4 204.66 121.19 204.66C120.88 204.66 120.6 204.73 120.35 204.88C120.1 205.03 119.9 205.24 119.76 205.5C119.62 205.75 119.55 206.06 119.55 206.4V211H117.47Z" fill="#9C8BEA"/><path d="M328 184H202C195.37 184 190 189.37 190 196V220C190 226.63 195.37 232 202 232H328C334.63 232 340 226.63 340 220V196C340 189.37 334.63 184 328 184Z" fill="#1B1B26"/><path d="M258.94 211.18C257.28 211.18 256.02 210.75 255.15 209.88C254.29 209 253.86 207.66 253.86 205.85C253.86 204.68 254.06 203.69 254.46 202.9C254.86 202.11 255.45 201.52 256.23 201.13C257.01 200.73 257.96 200.53 259.08 200.53C259.78 200.53 260.41 200.6 260.98 200.75C261.55 200.91 262.04 201.13 262.45 201.44C262.87 201.75 263.19 202.12 263.41 202.59C263.64 203.04 263.76 203.59 263.76 204.22H262.3C262.3 203.78 262.22 203.41 262.06 203.09C261.9 202.78 261.67 202.51 261.37 202.31C261.08 202.12 260.74 201.97 260.35 201.9C259.96 201.81 259.55 201.76 259.11 201.76C258.51 201.76 257.97 201.84 257.5 201.99C257.03 202.13 256.64 202.37 256.32 202.69C256 203.01 255.75 203.42 255.58 203.92C255.41 204.42 255.33 205.01 255.33 205.71V206.02C255.33 206.95 255.47 207.71 255.75 208.28C256.04 208.87 256.45 209.29 256.99 209.56C257.53 209.82 258.18 209.95 258.94 209.95C259.71 209.95 260.35 209.84 260.85 209.63C261.35 209.41 261.72 209.09 261.96 208.65C262.21 208.21 262.33 207.65 262.33 206.98V206.8H258.7V205.59H263.77V211H262.69L262.54 209.69C262.27 210.04 261.95 210.33 261.58 210.55C261.21 210.77 260.8 210.93 260.35 211.03C259.91 211.13 259.44 211.18 258.94 211.18ZM265.99 201.62V200.16H267.31V201.62H265.99ZM265.99 211V203.11H267.31V211H265.99ZM269.68 211V204.22H268.5V203.11H269.68V201.85C269.68 201.54 269.72 201.25 269.81 200.98C269.9 200.7 270.07 200.47 270.32 200.31C270.57 200.12 270.92 200.03 271.37 200.03C271.51 200.03 271.64 200.04 271.77 200.06C271.92 200.07 272.05 200.09 272.17 200.12C272.3 200.15 272.41 200.17 272.51 200.2V201.15H271.71C271.46 201.15 271.28 201.21 271.16 201.34C271.05 201.46 271 201.63 271 201.87V203.11H272.51V204.22H271V211H269.68ZM275.41 211.18C275 211.18 274.68 211.1 274.45 210.96C274.22 210.79 274.05 210.59 273.95 210.34C273.85 210.08 273.8 209.81 273.8 209.51V204.22H272.78V203.11H273.83L274.07 200.91H275.12V203.11H276.61V204.22H275.12V209.32C275.12 209.57 275.17 209.76 275.26 209.89C275.35 210.01 275.52 210.07 275.77 210.07H276.61V210.94C276.51 210.99 276.39 211.03 276.25 211.06C276.11 211.09 275.96 211.12 275.81 211.13C275.67 211.16 275.54 211.18 275.41 211.18Z" fill="#9A9AA8"/><path d="M486 184H360C353.37 184 348 189.37 348 196V220C348 226.63 353.37 232 360 232H486C492.63 232 498 226.63 498 220V196C498 189.37 492.63 184 486 184Z" fill="#1B1B26"/><path d="M408.32 211V200.71H413.63C414.22 200.71 414.73 200.81 415.16 201.03C415.59 201.22 415.92 201.51 416.15 201.88C416.39 202.25 416.51 202.69 416.51 203.2C416.51 203.59 416.44 203.95 416.3 204.28C416.16 204.61 415.97 204.88 415.72 205.1C415.47 205.32 415.18 205.49 414.86 205.6V205.66C415.22 205.74 415.55 205.88 415.84 206.09C416.13 206.31 416.36 206.59 416.53 206.94C416.71 207.28 416.8 207.69 416.8 208.19C416.8 208.87 416.66 209.41 416.38 209.81C416.1 210.22 415.72 210.53 415.25 210.72C414.78 210.91 414.24 211 413.63 211H408.32ZM409.75 209.77H413.62C414.13 209.77 414.54 209.64 414.86 209.38C415.18 209.11 415.34 208.66 415.34 208.04C415.34 207.66 415.27 207.35 415.13 207.1C414.99 206.84 414.79 206.65 414.52 206.53C414.25 206.4 413.91 206.34 413.5 206.34H409.75V209.77ZM409.75 205.12H413.36C413.7 205.12 414 205.06 414.25 204.93C414.5 204.78 414.69 204.59 414.83 204.35C414.98 204.1 415.06 203.82 415.06 203.51C415.06 202.97 414.91 202.58 414.62 202.33C414.33 202.07 413.95 201.94 413.47 201.94H409.75V205.12ZM421.78 211.18C420.98 211.18 420.31 211.03 419.76 210.75C419.22 210.44 418.8 209.99 418.51 209.38C418.23 208.77 418.09 208 418.09 207.06C418.09 206.1 418.23 205.33 418.51 204.73C418.8 204.12 419.22 203.67 419.76 203.38C420.31 203.08 420.98 202.93 421.78 202.93C422.58 202.93 423.25 203.08 423.79 203.38C424.34 203.67 424.76 204.12 425.04 204.73C425.32 205.33 425.46 206.1 425.46 207.06C425.46 208 425.32 208.77 425.04 209.38C424.76 209.99 424.34 210.44 423.79 210.75C423.25 211.03 422.58 211.18 421.78 211.18ZM421.78 210.07C422.29 210.07 422.72 209.97 423.06 209.77C423.4 209.57 423.65 209.26 423.82 208.84C424 208.41 424.09 207.87 424.09 207.22V206.89C424.09 206.23 424 205.69 423.82 205.27C423.65 204.85 423.4 204.54 423.06 204.34C422.72 204.14 422.29 204.04 421.78 204.04C421.27 204.04 420.84 204.14 420.49 204.34C420.15 204.54 419.9 204.85 419.73 205.27C419.56 205.69 419.47 206.23 419.47 206.89V207.22C419.47 207.87 419.56 208.41 419.73 208.84C419.9 209.26 420.15 209.57 420.49 209.77C420.84 209.97 421.27 210.07 421.78 210.07ZM428.94 211.18C428.53 211.18 428.21 211.1 427.98 210.96C427.75 210.79 427.59 210.59 427.49 210.34C427.39 210.08 427.34 209.81 427.34 209.51V204.22H426.32V203.11H427.37L427.61 200.91H428.66V203.11H430.14V204.22H428.66V209.32C428.66 209.57 428.7 209.76 428.79 209.89C428.88 210.01 429.05 210.07 429.3 210.07H430.14V210.94C430.04 210.99 429.92 211.03 429.78 211.06C429.64 211.09 429.5 211.12 429.35 211.13C429.21 211.16 429.07 211.18 428.94 211.18ZM431.55 211V200.16H432.87V204.1H432.98C433.18 203.83 433.4 203.61 433.65 203.44C433.9 203.27 434.18 203.15 434.48 203.06C434.79 202.97 435.12 202.93 435.48 202.93C435.98 202.93 436.42 203.01 436.79 203.19C437.17 203.35 437.46 203.63 437.67 204.01C437.89 204.39 438 204.91 438 205.56V211H436.68V205.74C436.68 205.41 436.63 205.13 436.55 204.93C436.46 204.72 436.35 204.55 436.2 204.43C436.06 204.31 435.88 204.22 435.68 204.18C435.48 204.12 435.25 204.1 435 204.1C434.63 204.1 434.28 204.19 433.95 204.37C433.62 204.54 433.36 204.79 433.15 205.13C432.96 205.47 432.87 205.88 432.87 206.37V211H431.55Z" fill="#9A9AA8"/><path d="M35.58 285.14C34.82 285.14 34.21 285.01 33.73 284.74C33.25 284.46 32.85 284.1 32.54 283.67L33.27 283.07C33.6 283.48 33.94 283.78 34.3 283.98C34.67 284.18 35.11 284.28 35.61 284.28C36.22 284.28 36.68 284.14 37 283.86C37.32 283.58 37.48 283.19 37.48 282.68C37.48 282.28 37.37 281.96 37.14 281.74C36.9 281.5 36.5 281.34 35.92 281.24L34.99 281.09C34.58 281.02 34.24 280.91 33.96 280.76C33.68 280.62 33.46 280.45 33.3 280.25C33.13 280.04 33.01 279.82 32.94 279.58C32.86 279.33 32.83 279.07 32.83 278.81C32.83 278.04 33.08 277.46 33.58 277.07C34.09 276.68 34.77 276.48 35.62 276.48C36.3 276.48 36.86 276.59 37.32 276.82C37.78 277.04 38.15 277.36 38.43 277.76L37.72 278.38C37.49 278.07 37.21 277.82 36.88 277.63C36.56 277.44 36.13 277.34 35.61 277.34C35.04 277.34 34.61 277.46 34.3 277.7C34 277.94 33.85 278.3 33.85 278.78C33.85 279.16 33.96 279.47 34.18 279.71C34.42 279.94 34.83 280.11 35.42 280.21L36.32 280.37C36.73 280.44 37.07 280.55 37.35 280.69C37.63 280.84 37.86 281.01 38.02 281.21C38.2 281.41 38.32 281.63 38.4 281.88C38.47 282.13 38.5 282.39 38.5 282.66C38.5 283.44 38.25 284.04 37.74 284.48C37.23 284.92 36.51 285.14 35.58 285.14ZM40.28 285L39.62 276.62H40.52L40.86 281.42L41.04 283.96H41.14L42.24 278.81H43.37L44.48 283.96H44.57L44.75 281.42L45.1 276.62H45.98L45.32 285H43.86L42.84 280H42.75L41.73 285H40.28ZM47.4 285V284.2H49.49V277.43H47.4V276.62H52.58V277.43H50.49V284.2H52.58V285H47.4ZM57.69 277.5V285H56.68V277.5H53.89V276.62H60.49V277.5H57.69ZM64.66 285.14C63.63 285.14 62.87 284.77 62.37 284.03C61.87 283.28 61.62 282.21 61.62 280.81C61.62 279.41 61.87 278.34 62.37 277.6C62.87 276.85 63.63 276.48 64.66 276.48C65.04 276.48 65.37 276.53 65.65 276.64C65.93 276.74 66.17 276.88 66.37 277.06C66.57 277.23 66.74 277.43 66.88 277.66C67.01 277.87 67.13 278.09 67.24 278.32L66.37 278.71C66.3 278.53 66.22 278.36 66.12 278.2C66.03 278.03 65.91 277.88 65.77 277.76C65.65 277.64 65.49 277.54 65.31 277.46C65.13 277.39 64.91 277.36 64.66 277.36C63.99 277.36 63.5 277.61 63.17 278.11C62.85 278.62 62.69 279.29 62.69 280.13V281.5C62.69 282.34 62.85 283.01 63.17 283.51C63.5 284.02 63.99 284.27 64.66 284.27C64.91 284.27 65.13 284.23 65.31 284.16C65.49 284.09 65.65 283.99 65.77 283.87C65.91 283.74 66.03 283.6 66.12 283.44C66.22 283.27 66.3 283.1 66.37 282.91L67.24 283.31C67.13 283.54 67.01 283.76 66.88 283.98C66.74 284.2 66.57 284.39 66.37 284.57C66.17 284.74 65.93 284.88 65.65 284.99C65.37 285.09 65.04 285.14 64.66 285.14ZM73.21 281.2H69.94V285H68.94V276.62H69.94V280.32H73.21V276.62H74.22V285H73.21V281.2ZM82.37 281.8V280.91H89.57V281.8H82.37ZM100.43 285.14C99.78 285.14 99.22 285.04 98.75 284.82C98.29 284.6 97.89 284.3 97.56 283.93L98.21 283.37C98.51 283.68 98.83 283.92 99.18 284.09C99.53 284.26 99.96 284.34 100.45 284.34C100.93 284.34 101.33 284.26 101.63 284.09C101.94 283.91 102.1 283.64 102.1 283.27C102.1 283.11 102.07 282.98 102 282.88C101.95 282.76 101.87 282.68 101.76 282.61C101.66 282.55 101.54 282.5 101.41 282.47C101.29 282.43 101.15 282.4 101.01 282.37L100.03 282.23C99.82 282.2 99.58 282.15 99.33 282.1C99.08 282.04 98.85 281.95 98.64 281.83C98.43 281.7 98.26 281.54 98.11 281.33C97.98 281.12 97.91 280.85 97.91 280.51C97.91 280.2 97.97 279.93 98.09 279.71C98.22 279.48 98.39 279.28 98.62 279.13C98.84 278.97 99.11 278.86 99.41 278.78C99.71 278.7 100.05 278.66 100.41 278.66C100.97 278.66 101.45 278.75 101.86 278.93C102.27 279.1 102.63 279.35 102.93 279.66L102.3 280.25C102.23 280.16 102.14 280.07 102.03 279.98C101.92 279.89 101.79 279.8 101.63 279.73C101.48 279.65 101.3 279.59 101.09 279.54C100.88 279.49 100.64 279.47 100.37 279.47C99.88 279.47 99.51 279.55 99.24 279.72C98.99 279.89 98.86 280.13 98.86 280.45C98.86 280.61 98.89 280.75 98.94 280.86C99.01 280.96 99.09 281.05 99.19 281.11C99.3 281.18 99.41 281.23 99.54 281.27C99.68 281.3 99.81 281.33 99.95 281.35L100.92 281.5C101.15 281.53 101.38 281.57 101.63 281.63C101.88 281.68 102.11 281.78 102.31 281.9C102.52 282.02 102.69 282.19 102.83 282.4C102.97 282.6 103.05 282.88 103.05 283.21C103.05 283.83 102.81 284.3 102.33 284.64C101.85 284.98 101.22 285.14 100.43 285.14ZM105.13 276.12H106.09V279.82H106.14C106.2 279.66 106.28 279.52 106.38 279.38C106.47 279.24 106.59 279.12 106.72 279.01C106.87 278.91 107.04 278.82 107.23 278.76C107.42 278.7 107.64 278.66 107.9 278.66C108.55 278.66 109.07 278.87 109.46 279.29C109.85 279.7 110.05 280.28 110.05 281.03V285H109.09V281.2C109.09 280.63 108.97 280.21 108.72 279.94C108.47 279.66 108.11 279.52 107.62 279.52C107.43 279.52 107.25 279.54 107.06 279.59C106.88 279.64 106.71 279.71 106.57 279.8C106.42 279.9 106.31 280.02 106.22 280.18C106.13 280.33 106.09 280.5 106.09 280.7V285H105.13V276.12ZM114.75 285.14C114.32 285.14 113.92 285.07 113.57 284.92C113.23 284.76 112.93 284.55 112.68 284.27C112.44 283.98 112.26 283.64 112.13 283.25C112 282.85 111.94 282.4 111.94 281.9C111.94 281.42 112 280.97 112.13 280.57C112.26 280.17 112.44 279.83 112.68 279.55C112.93 279.26 113.23 279.04 113.57 278.89C113.92 278.74 114.32 278.66 114.75 278.66C115.18 278.66 115.57 278.74 115.91 278.89C116.26 279.04 116.56 279.26 116.8 279.55C117.05 279.83 117.24 280.17 117.36 280.57C117.49 280.97 117.56 281.42 117.56 281.9C117.56 282.4 117.49 282.85 117.36 283.25C117.24 283.64 117.05 283.98 116.8 284.27C116.56 284.55 116.26 284.76 115.91 284.92C115.57 285.07 115.18 285.14 114.75 285.14ZM114.75 284.32C115.28 284.32 115.72 284.16 116.04 283.84C116.37 283.52 116.54 283.02 116.54 282.35V281.46C116.54 280.79 116.37 280.29 116.04 279.97C115.72 279.65 115.28 279.49 114.75 279.49C114.21 279.49 113.78 279.65 113.45 279.97C113.12 280.29 112.96 280.79 112.96 281.46V282.35C112.96 283.02 113.12 283.52 113.45 283.84C113.78 284.16 114.21 284.32 114.75 284.32ZM118.7 278.81H119.56L120.26 284.16H120.37L121.43 278.81H122.48L123.54 284.16H123.65L124.36 278.81H125.18L124.24 285H122.99L122 279.82H121.91L120.9 285H119.65L118.7 278.81ZM133.81 286.66L137.99 275.88H138.85L134.68 286.66H133.81ZM148.3 276.12H149.26V279.82H149.31C149.37 279.66 149.45 279.52 149.55 279.38C149.65 279.24 149.76 279.12 149.9 279.01C150.04 278.91 150.21 278.82 150.4 278.76C150.59 278.7 150.82 278.66 151.07 278.66C151.72 278.66 152.24 278.87 152.63 279.29C153.03 279.7 153.22 280.28 153.22 281.03V285H152.26V281.2C152.26 280.63 152.14 280.21 151.89 279.94C151.64 279.66 151.28 279.52 150.8 279.52C150.6 279.52 150.42 279.54 150.23 279.59C150.05 279.64 149.88 279.71 149.74 279.8C149.6 279.9 149.48 280.02 149.39 280.18C149.31 280.33 149.26 280.5 149.26 280.7V285H148.3V276.12ZM158.3 277.44C158.02 277.44 157.83 277.38 157.72 277.27C157.6 277.15 157.55 277 157.55 276.83V276.64C157.55 276.46 157.6 276.32 157.72 276.2C157.83 276.08 158.02 276.02 158.3 276.02C158.58 276.02 158.78 276.08 158.89 276.2C159 276.32 159.06 276.46 159.06 276.64V276.83C159.06 277 159 277.15 158.89 277.27C158.78 277.38 158.58 277.44 158.3 277.44ZM155.59 284.18H157.82V279.62H155.59V278.81H158.78V284.18H160.87V285H155.59V284.18ZM166.62 283.99H166.57C166.17 284.76 165.53 285.14 164.66 285.14C163.9 285.14 163.3 284.86 162.87 284.29C162.45 283.72 162.24 282.93 162.24 281.9C162.24 280.88 162.45 280.08 162.87 279.52C163.3 278.95 163.9 278.66 164.66 278.66C165.53 278.66 166.17 279.05 166.57 279.82H166.62V276.12H167.58V285H166.62V283.99ZM165.03 284.29C165.25 284.29 165.45 284.26 165.64 284.21C165.84 284.15 166 284.07 166.15 283.97C166.29 283.86 166.4 283.72 166.48 283.57C166.57 283.41 166.62 283.23 166.62 283.02V280.79C166.62 280.58 166.57 280.4 166.48 280.25C166.4 280.09 166.29 279.96 166.15 279.85C166 279.74 165.84 279.66 165.64 279.6C165.45 279.54 165.25 279.52 165.03 279.52C164.47 279.52 164.04 279.69 163.72 280.03C163.42 280.37 163.27 280.82 163.27 281.38V282.43C163.27 282.99 163.42 283.44 163.72 283.79C164.04 284.12 164.47 284.29 165.03 284.29ZM172.42 285.14C171.97 285.14 171.57 285.07 171.21 284.92C170.85 284.76 170.55 284.55 170.29 284.27C170.05 283.98 169.85 283.64 169.72 283.25C169.58 282.85 169.51 282.4 169.51 281.92C169.51 281.42 169.58 280.97 169.72 280.57C169.86 280.17 170.06 279.83 170.31 279.55C170.56 279.26 170.85 279.04 171.19 278.89C171.55 278.74 171.94 278.66 172.36 278.66C172.78 278.66 173.15 278.74 173.49 278.89C173.83 279.04 174.12 279.26 174.36 279.53C174.6 279.79 174.79 280.11 174.91 280.48C175.04 280.84 175.11 281.25 175.11 281.69V282.14H170.52V282.43C170.52 282.7 170.57 282.96 170.66 283.19C170.74 283.42 170.87 283.62 171.03 283.79C171.19 283.96 171.4 284.09 171.63 284.18C171.87 284.27 172.13 284.32 172.42 284.32C172.84 284.32 173.19 284.22 173.5 284.03C173.8 283.84 174.03 283.57 174.19 283.24L174.9 283.72C174.72 284.13 174.41 284.48 173.98 284.75C173.56 285.01 173.03 285.14 172.42 285.14ZM172.36 279.46C172.09 279.46 171.85 279.5 171.63 279.6C171.4 279.7 171.21 279.83 171.04 280C170.88 280.16 170.75 280.36 170.66 280.6C170.57 280.82 170.52 281.07 170.52 281.34V281.42H174.07V281.29C174.07 281.02 174.03 280.77 173.94 280.55C173.86 280.32 173.75 280.13 173.59 279.97C173.45 279.8 173.27 279.68 173.06 279.59C172.85 279.5 172.62 279.46 172.36 279.46ZM189.04 285C188.67 285 188.4 284.9 188.24 284.71C188.08 284.52 187.98 284.28 187.94 283.99H187.88C187.74 284.35 187.52 284.64 187.22 284.84C186.92 285.04 186.52 285.14 186.02 285.14C185.37 285.14 184.85 284.98 184.47 284.64C184.09 284.3 183.89 283.84 183.89 283.26C183.89 282.68 184.1 282.24 184.52 281.93C184.94 281.62 185.62 281.46 186.56 281.46H187.88V280.85C187.88 280.39 187.75 280.05 187.49 279.83C187.24 279.6 186.87 279.48 186.4 279.48C185.99 279.48 185.65 279.56 185.38 279.73C185.12 279.89 184.91 280.11 184.75 280.39L184.1 279.91C184.18 279.75 184.29 279.6 184.42 279.44C184.56 279.29 184.73 279.16 184.93 279.05C185.13 278.93 185.35 278.84 185.61 278.77C185.87 278.7 186.15 278.66 186.46 278.66C187.19 278.66 187.77 278.85 188.19 279.22C188.62 279.58 188.84 280.1 188.84 280.75V284.16H189.7V285H189.04ZM186.19 284.34C186.43 284.34 186.66 284.31 186.86 284.26C187.07 284.19 187.25 284.11 187.4 284.02C187.55 283.91 187.67 283.79 187.75 283.66C187.83 283.51 187.88 283.36 187.88 283.2V282.18H186.56C185.98 282.18 185.56 282.26 185.3 282.42C185.03 282.58 184.9 282.81 184.9 283.12V283.37C184.9 283.69 185.01 283.93 185.24 284.1C185.47 284.26 185.79 284.34 186.19 284.34ZM194.11 285.14C193.66 285.14 193.26 285.07 192.91 284.92C192.57 284.76 192.28 284.54 192.04 284.26C191.8 283.98 191.61 283.64 191.49 283.24C191.37 282.84 191.31 282.39 191.31 281.9C191.31 281.42 191.37 280.97 191.5 280.57C191.62 280.17 191.81 279.83 192.05 279.55C192.29 279.26 192.58 279.04 192.93 278.89C193.27 278.74 193.66 278.66 194.1 278.66C194.7 278.66 195.19 278.8 195.56 279.06C195.94 279.32 196.22 279.67 196.39 280.09L195.62 280.5C195.51 280.18 195.32 279.93 195.06 279.76C194.81 279.58 194.49 279.49 194.1 279.49C193.82 279.49 193.57 279.54 193.34 279.64C193.13 279.72 192.94 279.85 192.79 280.02C192.64 280.19 192.53 280.39 192.44 280.62C192.37 280.85 192.34 281.1 192.34 281.38V282.43C192.34 282.7 192.37 282.96 192.44 283.19C192.53 283.42 192.64 283.62 192.79 283.79C192.94 283.96 193.13 284.09 193.36 284.18C193.58 284.27 193.84 284.32 194.12 284.32C194.54 284.32 194.88 284.22 195.16 284.03C195.43 283.84 195.65 283.57 195.81 283.24L196.49 283.7C196.31 284.12 196.02 284.46 195.62 284.74C195.24 285.01 194.74 285.14 194.11 285.14ZM201.31 285.14C200.86 285.14 200.46 285.07 200.11 284.92C199.76 284.76 199.47 284.54 199.23 284.26C198.99 283.98 198.81 283.64 198.68 283.24C198.56 282.84 198.5 282.39 198.5 281.9C198.5 281.42 198.56 280.97 198.69 280.57C198.82 280.17 199 279.83 199.24 279.55C199.48 279.26 199.78 279.04 200.12 278.89C200.46 278.74 200.86 278.66 201.3 278.66C201.9 278.66 202.38 278.8 202.76 279.06C203.14 279.32 203.41 279.67 203.59 280.09L202.82 280.5C202.71 280.18 202.52 279.93 202.26 279.76C202 279.58 201.68 279.49 201.3 279.49C201.02 279.49 200.76 279.54 200.54 279.64C200.32 279.72 200.14 279.85 199.99 280.02C199.84 280.19 199.72 280.39 199.64 280.62C199.57 280.85 199.53 281.1 199.53 281.38V282.43C199.53 282.7 199.57 282.96 199.64 283.19C199.72 283.42 199.84 283.62 199.99 283.79C200.14 283.96 200.33 284.09 200.55 284.18C200.78 284.27 201.03 284.32 201.32 284.32C201.74 284.32 202.08 284.22 202.35 284.03C202.62 283.84 202.84 283.57 203 283.24L203.68 283.7C203.5 284.12 203.21 284.46 202.82 284.74C202.44 285.01 201.93 285.14 201.31 285.14ZM208.29 285.14C207.86 285.14 207.46 285.07 207.11 284.92C206.77 284.76 206.47 284.55 206.22 284.27C205.98 283.98 205.8 283.64 205.67 283.25C205.54 282.85 205.48 282.4 205.48 281.9C205.48 281.42 205.54 280.97 205.67 280.57C205.8 280.17 205.98 279.83 206.22 279.55C206.47 279.26 206.77 279.04 207.11 278.89C207.46 278.74 207.86 278.66 208.29 278.66C208.72 278.66 209.11 278.74 209.45 278.89C209.8 279.04 210.1 279.26 210.34 279.55C210.59 279.83 210.78 280.17 210.9 280.57C211.03 280.97 211.1 281.42 211.1 281.9C211.1 282.4 211.03 282.85 210.9 283.25C210.78 283.64 210.59 283.98 210.34 284.27C210.1 284.55 209.8 284.76 209.45 284.92C209.11 285.07 208.72 285.14 208.29 285.14ZM208.29 284.32C208.82 284.32 209.26 284.16 209.58 283.84C209.91 283.52 210.08 283.02 210.08 282.35V281.46C210.08 280.79 209.91 280.29 209.58 279.97C209.26 279.65 208.82 279.49 208.29 279.49C207.75 279.49 207.32 279.65 206.99 279.97C206.66 280.29 206.5 280.79 206.5 281.46V282.35C206.5 283.02 206.66 283.52 206.99 283.84C207.32 284.16 207.75 284.32 208.29 284.32ZM216.95 283.99H216.9C216.84 284.14 216.75 284.29 216.66 284.44C216.56 284.57 216.44 284.69 216.3 284.8C216.16 284.9 216 284.98 215.81 285.05C215.62 285.11 215.39 285.14 215.13 285.14C214.49 285.14 213.97 284.94 213.57 284.53C213.18 284.12 212.99 283.53 212.99 282.78V278.81H213.95V282.61C213.95 283.18 214.07 283.6 214.32 283.88C214.57 284.16 214.93 284.29 215.41 284.29C215.6 284.29 215.79 284.27 215.97 284.22C216.16 284.17 216.32 284.1 216.47 284C216.61 283.91 216.73 283.79 216.81 283.64C216.9 283.49 216.95 283.31 216.95 283.1V278.81H217.91V285H216.95V283.99ZM220.25 285V278.81H221.21V279.82H221.26C221.33 279.66 221.41 279.52 221.5 279.38C221.6 279.24 221.71 279.12 221.85 279.01C221.99 278.91 222.16 278.82 222.35 278.76C222.55 278.7 222.77 278.66 223.03 278.66C223.67 278.66 224.19 278.87 224.59 279.29C224.98 279.7 225.17 280.28 225.17 281.03V285H224.21V281.2C224.21 280.63 224.09 280.21 223.84 279.94C223.59 279.66 223.23 279.52 222.75 279.52C222.56 279.52 222.37 279.54 222.19 279.59C222 279.64 221.84 279.71 221.69 279.8C221.55 279.9 221.43 280.02 221.35 280.18C221.26 280.33 221.21 280.5 221.21 280.7V285H220.25ZM230.17 285C229.7 285 229.35 284.87 229.13 284.6C228.91 284.34 228.81 284 228.81 283.58V279.62H226.74V278.81H228.28C228.49 278.81 228.63 278.77 228.71 278.69C228.8 278.6 228.84 278.45 228.84 278.24V276.62H229.76V278.81H232.59V279.62H229.76V284.18H232.59V285H230.17Z" fill="#9A9AA8"/><path d="M71 298H47C38.72 298 32 304.72 32 313C32 321.28 38.72 328 47 328H71C79.28 328 86 321.28 86 313C86 304.72 79.28 298 71 298Z" fill="#7158D7"/><path d="M71 324C77.08 324 82 319.07 82 313C82 306.93 77.08 302 71 302C64.92 302 60 306.93 60 313C60 319.07 64.92 324 71 324Z" fill="white"/><path d="M105.52 315.17C104.52 315.17 103.66 314.99 102.94 314.62C102.23 314.26 101.68 313.71 101.29 312.97C100.91 312.23 100.71 311.31 100.71 310.2C100.71 309.08 100.91 308.15 101.29 307.43C101.68 306.69 102.23 306.14 102.94 305.77C103.66 305.41 104.52 305.23 105.52 305.23C106.52 305.23 107.37 305.41 108.08 305.77C108.8 306.14 109.35 306.69 109.73 307.43C110.12 308.15 110.32 309.08 110.32 310.2C110.32 311.31 110.12 312.23 109.73 312.97C109.35 313.71 108.8 314.26 108.08 314.62C107.37 314.99 106.52 315.17 105.52 315.17ZM105.52 314.02C106.04 314.02 106.51 313.95 106.93 313.81C107.36 313.67 107.72 313.45 108.01 313.15C108.31 312.84 108.53 312.46 108.69 312C108.85 311.54 108.93 310.99 108.93 310.35V310.06C108.93 309.41 108.85 308.86 108.69 308.41C108.53 307.94 108.31 307.56 108.01 307.26C107.72 306.95 107.36 306.73 106.93 306.59C106.51 306.45 106.04 306.38 105.52 306.38C104.98 306.38 104.51 306.45 104.09 306.59C103.67 306.73 103.31 306.95 103.01 307.26C102.71 307.56 102.48 307.94 102.32 308.41C102.17 308.86 102.1 309.41 102.1 310.06V310.35C102.1 310.99 102.17 311.54 102.32 312C102.48 312.46 102.71 312.84 103.01 313.15C103.31 313.45 103.67 313.67 104.09 313.81C104.51 313.95 104.98 314.02 105.52 314.02ZM112 315V307.64H112.99L113.11 308.74H113.2C113.4 308.44 113.62 308.2 113.86 308.01C114.11 307.83 114.39 307.69 114.69 307.61C115 307.51 115.32 307.47 115.67 307.47C116.13 307.47 116.54 307.55 116.89 307.71C117.24 307.87 117.52 308.12 117.71 308.48C117.92 308.83 118.02 309.31 118.02 309.92V315H116.79V310.09C116.79 309.78 116.75 309.53 116.66 309.33C116.59 309.13 116.48 308.98 116.34 308.87C116.21 308.76 116.05 308.68 115.85 308.63C115.66 308.58 115.45 308.56 115.22 308.56C114.87 308.56 114.55 308.64 114.24 308.81C113.93 308.98 113.68 309.22 113.5 309.54C113.32 309.86 113.23 310.24 113.23 310.67V315H112Z" fill="#C7C7D2"/><path d="M199 298H175C166.72 298 160 304.72 160 313C160 321.28 166.72 328 175 328H199C207.28 328 214 321.28 214 313C214 304.72 207.28 298 199 298Z" fill="#2A2A34"/><path d="M175 324C181.07 324 186 319.07 186 313C186 306.93 181.07 302 175 302C168.93 302 164 306.93 164 313C164 319.07 168.93 324 175 324Z" fill="#8A8A96"/><path d="M233.52 315.17C232.52 315.17 231.66 314.99 230.94 314.62C230.23 314.26 229.68 313.71 229.29 312.97C228.91 312.23 228.71 311.31 228.71 310.2C228.71 309.08 228.91 308.15 229.29 307.43C229.68 306.69 230.23 306.14 230.94 305.77C231.66 305.41 232.52 305.23 233.52 305.23C234.51 305.23 235.37 305.41 236.08 305.77C236.8 306.14 237.35 306.69 237.73 307.43C238.12 308.15 238.32 309.08 238.32 310.2C238.32 311.31 238.12 312.23 237.73 312.97C237.35 313.71 236.8 314.26 236.08 314.62C235.37 314.99 234.51 315.17 233.52 315.17ZM233.52 314.02C234.04 314.02 234.51 313.95 234.93 313.81C235.36 313.67 235.72 313.45 236.01 313.15C236.31 312.84 236.53 312.46 236.69 312C236.85 311.54 236.93 310.99 236.93 310.35V310.06C236.93 309.41 236.85 308.86 236.69 308.41C236.53 307.94 236.31 307.56 236.01 307.26C235.72 306.95 235.36 306.73 234.93 306.59C234.51 306.45 234.04 306.38 233.52 306.38C232.98 306.38 232.51 306.45 232.09 306.59C231.67 306.73 231.31 306.95 231.01 307.26C230.71 307.56 230.48 307.94 230.32 308.41C230.18 308.86 230.1 309.41 230.1 310.06V310.35C230.1 310.99 230.18 311.54 230.32 312C230.48 312.46 230.71 312.84 231.01 313.15C231.31 313.45 231.67 313.67 232.09 313.81C232.51 313.95 232.98 314.02 233.52 314.02ZM240.29 315V308.67H239.2V307.64H240.29V306.46C240.29 306.17 240.34 305.9 240.42 305.65C240.5 305.39 240.66 305.18 240.9 305.02C241.13 304.85 241.46 304.77 241.88 304.77C242.01 304.77 242.13 304.77 242.25 304.79C242.38 304.8 242.5 304.82 242.62 304.85C242.74 304.87 242.85 304.89 242.94 304.92V305.8H242.2C241.96 305.8 241.79 305.86 241.68 305.98C241.58 306.1 241.53 306.26 241.53 306.47V307.64H243.92V306.46C243.92 306.17 243.96 305.9 244.04 305.65C244.14 305.39 244.3 305.18 244.53 305.02C244.77 304.85 245.09 304.77 245.51 304.77C245.64 304.77 245.76 304.77 245.89 304.79C246.02 304.8 246.15 304.82 246.26 304.85C246.37 304.87 246.47 304.89 246.56 304.92V305.8H245.84C245.6 305.8 245.43 305.86 245.32 305.98C245.21 306.1 245.15 306.26 245.15 306.47V307.64H246.56V308.67H245.15V315H243.92V308.67H241.53V315H240.29Z" fill="#9A9AA8"/></g><defs><clipPath id="clip0_12_179"><rect width="760" height="340" fill="white"/></clipPath></defs></svg>